<mxfile host="65bd71144e">
    <diagram id="QJxusbHOAleZ1p1Xszbk" name="overview">
        <mxGraphModel dx="1307" dy="780" grid="1" gridSize="10" guides="1" tooltips="1" connect="1" arrows="1" fold="1" page="1" pageScale="1" pageWidth="850" pageHeight="1100" math="0" shadow="0">
            <root>
                <mxCell id="0"/>
                <mxCell id="1" parent="0"/>
                <mxCell id="13" value="" style="rounded=0;whiteSpace=wrap;html=1;fillColor=none;dashed=1;" parent="1" vertex="1">
                    <mxGeometry x="138" y="480" width="575" height="140" as="geometry"/>
                </mxCell>
                <mxCell id="12" value="" style="rounded=0;whiteSpace=wrap;html=1;fillColor=none;dashed=1;" parent="1" vertex="1">
                    <mxGeometry x="138" y="135" width="575" height="250" as="geometry"/>
                </mxCell>
                <mxCell id="5" style="edgeStyle=orthogonalEdgeStyle;rounded=0;orthogonalLoop=1;jettySize=auto;html=1;entryX=0;entryY=0.5;entryDx=0;entryDy=0;" parent="1" target="3" edge="1">
                    <mxGeometry relative="1" as="geometry">
                        <mxPoint x="398" y="260" as="sourcePoint"/>
                    </mxGeometry>
                </mxCell>
                <mxCell id="2" value="prediction_dataset" style="rounded=1;whiteSpace=wrap;html=1;" parent="1" vertex="1">
                    <mxGeometry x="278" y="240" width="120" height="60" as="geometry"/>
                </mxCell>
                <mxCell id="3" value="predictioin_pytorch" style="rounded=1;whiteSpace=wrap;html=1;" parent="1" vertex="1">
                    <mxGeometry x="498" y="230" width="120" height="60" as="geometry"/>
                </mxCell>
                <mxCell id="DIIoFBFFxZVNlJfFU8Sg-28" style="edgeStyle=orthogonalEdgeStyle;rounded=0;orthogonalLoop=1;jettySize=auto;html=1;" parent="1" source="4" edge="1">
                    <mxGeometry relative="1" as="geometry">
                        <mxPoint x="668" y="550" as="targetPoint"/>
                    </mxGeometry>
                </mxCell>
                <mxCell id="4" value="predictioin_cpp" style="rounded=1;whiteSpace=wrap;html=1;" parent="1" vertex="1">
                    <mxGeometry x="358" y="520" width="120" height="60" as="geometry"/>
                </mxCell>
                <mxCell id="DIIoFBFFxZVNlJfFU8Sg-18" style="edgeStyle=orthogonalEdgeStyle;rounded=0;orthogonalLoop=1;jettySize=auto;html=1;entryX=0;entryY=0.75;entryDx=0;entryDy=0;" parent="1" source="7" target="2" edge="1">
                    <mxGeometry relative="1" as="geometry">
                        <Array as="points">
                            <mxPoint x="248" y="350"/>
                            <mxPoint x="248" y="285"/>
                        </Array>
                    </mxGeometry>
                </mxCell>
                <mxCell id="7" value="Offline Bag" style="text;html=1;strokeColor=none;fillColor=none;align=center;verticalAlign=middle;whiteSpace=wrap;rounded=0;" parent="1" vertex="1">
                    <mxGeometry x="148" y="340" width="90" height="20" as="geometry"/>
                </mxCell>
                <mxCell id="10" style="edgeStyle=orthogonalEdgeStyle;rounded=0;orthogonalLoop=1;jettySize=auto;html=1;" parent="1" source="9" edge="1">
                    <mxGeometry relative="1" as="geometry">
                        <mxPoint x="278" y="260" as="targetPoint"/>
                        <Array as="points">
                            <mxPoint x="248" y="190"/>
                            <mxPoint x="248" y="260"/>
                            <mxPoint x="278" y="260"/>
                        </Array>
                    </mxGeometry>
                </mxCell>
                <mxCell id="9" value="Offline dataset" style="text;html=1;strokeColor=none;fillColor=none;align=center;verticalAlign=middle;whiteSpace=wrap;rounded=0;" parent="1" vertex="1">
                    <mxGeometry x="148" y="180" width="90" height="20" as="geometry"/>
                </mxCell>
                <mxCell id="14" value="Offline" style="text;html=1;strokeColor=none;fillColor=none;align=center;verticalAlign=middle;whiteSpace=wrap;rounded=0;dashed=1;" parent="1" vertex="1">
                    <mxGeometry x="388" y="135" width="40" height="20" as="geometry"/>
                </mxCell>
                <mxCell id="15" value="Online" style="text;html=1;strokeColor=none;fillColor=none;align=center;verticalAlign=middle;whiteSpace=wrap;rounded=0;dashed=1;" parent="1" vertex="1">
                    <mxGeometry x="388" y="490" width="40" height="20" as="geometry"/>
                </mxCell>
                <mxCell id="16" value="python" style="text;html=1;strokeColor=none;fillColor=none;align=center;verticalAlign=middle;whiteSpace=wrap;rounded=0;dashed=1;" parent="1" vertex="1">
                    <mxGeometry x="318" y="240" width="40" height="20" as="geometry"/>
                </mxCell>
                <mxCell id="17" value="cpp" style="text;html=1;strokeColor=none;fillColor=none;align=center;verticalAlign=middle;whiteSpace=wrap;rounded=0;dashed=1;" parent="1" vertex="1">
                    <mxGeometry x="318" y="280" width="40" height="20" as="geometry"/>
                </mxCell>
                <mxCell id="DIIoFBFFxZVNlJfFU8Sg-19" value="Map info" style="text;html=1;strokeColor=none;fillColor=none;align=center;verticalAlign=middle;whiteSpace=wrap;rounded=0;" parent="1" vertex="1">
                    <mxGeometry x="158" y="580" width="90" height="20" as="geometry"/>
                </mxCell>
                <mxCell id="DIIoFBFFxZVNlJfFU8Sg-20" value="Obstacle info" style="text;html=1;strokeColor=none;fillColor=none;align=center;verticalAlign=middle;whiteSpace=wrap;rounded=0;" parent="1" vertex="1">
                    <mxGeometry x="158" y="500" width="90" height="20" as="geometry"/>
                </mxCell>
                <mxCell id="DIIoFBFFxZVNlJfFU8Sg-21" value="localization info" style="text;html=1;strokeColor=none;fillColor=none;align=center;verticalAlign=middle;whiteSpace=wrap;rounded=0;" parent="1" vertex="1">
                    <mxGeometry x="158" y="520" width="90" height="20" as="geometry"/>
                </mxCell>
                <mxCell id="DIIoFBFFxZVNlJfFU8Sg-23" style="edgeStyle=orthogonalEdgeStyle;rounded=0;orthogonalLoop=1;jettySize=auto;html=1;" parent="1" source="DIIoFBFFxZVNlJfFU8Sg-22" target="4" edge="1">
                    <mxGeometry relative="1" as="geometry"/>
                </mxCell>
                <mxCell id="DIIoFBFFxZVNlJfFU8Sg-22" value="" style="shape=curlyBracket;whiteSpace=wrap;html=1;rounded=1;flipH=1;dashed=1;fillColor=none;" parent="1" vertex="1">
                    <mxGeometry x="258" y="490" width="20" height="120" as="geometry"/>
                </mxCell>
                <mxCell id="DIIoFBFFxZVNlJfFU8Sg-29" value="traffic signal" style="text;html=1;strokeColor=none;fillColor=none;align=center;verticalAlign=middle;whiteSpace=wrap;rounded=0;" parent="1" vertex="1">
                    <mxGeometry x="158" y="560" width="90" height="20" as="geometry"/>
                </mxCell>
            </root>
        </mxGraphModel>
    </diagram>
    <diagram id="yGyVidbEcjTU5h8iMna0" name="prediction_dataset">
        <mxGraphModel dx="3343" dy="780" grid="1" gridSize="10" guides="1" tooltips="1" connect="1" arrows="1" fold="1" page="0" pageScale="1" pageWidth="850" pageHeight="1100" math="0" shadow="0">
            <root>
                <mxCell id="_g4DaSGvke30XTqqvjTM-0"/>
                <mxCell id="_g4DaSGvke30XTqqvjTM-1" parent="_g4DaSGvke30XTqqvjTM-0"/>
                <mxCell id="nF97DwH9zGk8c-TD3iw7-15" value="" style="rounded=0;whiteSpace=wrap;html=1;fillColor=none;" vertex="1" parent="_g4DaSGvke30XTqqvjTM-1">
                    <mxGeometry x="-1078.5" y="2580" width="257" height="150" as="geometry"/>
                </mxCell>
                <mxCell id="qmj0_fMUe-QXnXRRxb3Y-50" value="" style="rounded=0;whiteSpace=wrap;html=1;strokeColor=#2D7600;fontColor=#ffffff;fillColor=none;" vertex="1" parent="_g4DaSGvke30XTqqvjTM-1">
                    <mxGeometry x="-986.5" y="2610" width="90" height="60" as="geometry"/>
                </mxCell>
                <mxCell id="Gk68E103cxTyedhqfcVZ-15" value="" style="rounded=0;whiteSpace=wrap;html=1;fillColor=none;" parent="_g4DaSGvke30XTqqvjTM-1" vertex="1">
                    <mxGeometry x="-990" y="1635" width="330" height="210" as="geometry"/>
                </mxCell>
                <mxCell id="4f4ZlgQCkmpkjtm2Scpx-97" value="" style="rounded=0;whiteSpace=wrap;html=1;fillColor=none;" parent="_g4DaSGvke30XTqqvjTM-1" vertex="1">
                    <mxGeometry x="311.5" y="1455" width="257" height="150" as="geometry"/>
                </mxCell>
                <mxCell id="4f4ZlgQCkmpkjtm2Scpx-79" value="" style="rounded=0;whiteSpace=wrap;html=1;fillColor=none;" parent="_g4DaSGvke30XTqqvjTM-1" vertex="1">
                    <mxGeometry x="311.5" y="1270" width="257" height="150" as="geometry"/>
                </mxCell>
                <mxCell id="4f4ZlgQCkmpkjtm2Scpx-78" value="" style="rounded=0;whiteSpace=wrap;html=1;fillColor=none;" parent="_g4DaSGvke30XTqqvjTM-1" vertex="1">
                    <mxGeometry x="-80" y="1330" width="300" height="210" as="geometry"/>
                </mxCell>
                <mxCell id="4f4ZlgQCkmpkjtm2Scpx-8" value="" style="rounded=0;whiteSpace=wrap;html=1;fillColor=none;" parent="_g4DaSGvke30XTqqvjTM-1" vertex="1">
                    <mxGeometry x="-480" y="1500" width="330" height="210" as="geometry"/>
                </mxCell>
                <mxCell id="n0MbjQElVz4zjs2QcDwj-0" style="edgeStyle=orthogonalEdgeStyle;rounded=0;orthogonalLoop=1;jettySize=auto;html=1;exitX=1;exitY=0.5;exitDx=0;exitDy=0;" parent="_g4DaSGvke30XTqqvjTM-1" source="tZaXzsc3S-5njgaquMQ2-0" target="uAZj58KrHHXQdc1uDm-O-9" edge="1">
                    <mxGeometry relative="1" as="geometry">
                        <Array as="points">
                            <mxPoint x="950" y="729"/>
                            <mxPoint x="950" y="870"/>
                        </Array>
                    </mxGeometry>
                </mxCell>
                <mxCell id="n0MbjQElVz4zjs2QcDwj-1" style="edgeStyle=orthogonalEdgeStyle;rounded=0;orthogonalLoop=1;jettySize=auto;html=1;exitX=1;exitY=0.5;exitDx=0;exitDy=0;" parent="_g4DaSGvke30XTqqvjTM-1" source="4f4ZlgQCkmpkjtm2Scpx-76" target="wAjEDZ8VuiU0E2C-fXOC-1" edge="1">
                    <mxGeometry relative="1" as="geometry"/>
                </mxCell>
                <mxCell id="hZxpmh5jMrpCqn0ORo-v-1" style="edgeStyle=orthogonalEdgeStyle;rounded=0;orthogonalLoop=1;jettySize=auto;html=1;entryX=0;entryY=0;entryDx=0;entryDy=27.5;entryPerimeter=0;" parent="_g4DaSGvke30XTqqvjTM-1" source="uAZj58KrHHXQdc1uDm-O-9" target="uAZj58KrHHXQdc1uDm-O-1" edge="1">
                    <mxGeometry relative="1" as="geometry">
                        <mxPoint x="1660" y="1030" as="targetPoint"/>
                    </mxGeometry>
                </mxCell>
                <mxCell id="uAZj58KrHHXQdc1uDm-O-9" value="" style="rounded=1;whiteSpace=wrap;html=1;dashed=1;fillColor=none;" parent="_g4DaSGvke30XTqqvjTM-1" vertex="1">
                    <mxGeometry x="1060" y="800" width="460" height="140" as="geometry"/>
                </mxCell>
                <mxCell id="SuP6qpnvCsWETHp8EAkk-7" value="" style="rounded=1;whiteSpace=wrap;html=1;dashed=1;fillColor=none;" parent="_g4DaSGvke30XTqqvjTM-1" vertex="1">
                    <mxGeometry x="290" y="130" width="390" height="390" as="geometry"/>
                </mxCell>
                <mxCell id="Shihy_Qtj0EQHQhe5kGz-1" style="edgeStyle=orthogonalEdgeStyle;rounded=0;orthogonalLoop=1;jettySize=auto;html=1;" parent="_g4DaSGvke30XTqqvjTM-1" source="SuP6qpnvCsWETHp8EAkk-8" target="Shihy_Qtj0EQHQhe5kGz-0" edge="1">
                    <mxGeometry relative="1" as="geometry"/>
                </mxCell>
                <mxCell id="uAZj58KrHHXQdc1uDm-O-13" value="python API" style="edgeLabel;html=1;align=center;verticalAlign=middle;resizable=0;points=[];" parent="Shihy_Qtj0EQHQhe5kGz-1" vertex="1" connectable="0">
                    <mxGeometry x="-0.1212" y="1" relative="1" as="geometry">
                        <mxPoint as="offset"/>
                    </mxGeometry>
                </mxCell>
                <mxCell id="SuP6qpnvCsWETHp8EAkk-8" value="dataset process&lt;br&gt;(python)" style="rounded=1;whiteSpace=wrap;html=1;fillColor=none;" parent="_g4DaSGvke30XTqqvjTM-1" vertex="1">
                    <mxGeometry x="365" y="165" width="120" height="60" as="geometry"/>
                </mxCell>
                <mxCell id="SuP6qpnvCsWETHp8EAkk-9" value="argverse" style="text;html=1;strokeColor=none;fillColor=none;align=center;verticalAlign=middle;whiteSpace=wrap;rounded=0;dashed=1;" parent="_g4DaSGvke30XTqqvjTM-1" vertex="1">
                    <mxGeometry x="180" y="160" width="40" height="20" as="geometry"/>
                </mxCell>
                <mxCell id="SuP6qpnvCsWETHp8EAkk-11" value="INTERPRET" style="text;html=1;strokeColor=none;fillColor=none;align=center;verticalAlign=middle;whiteSpace=wrap;rounded=0;dashed=1;" parent="_g4DaSGvke30XTqqvjTM-1" vertex="1">
                    <mxGeometry x="180" y="190" width="40" height="20" as="geometry"/>
                </mxCell>
                <mxCell id="SuP6qpnvCsWETHp8EAkk-12" value="waymo" style="text;html=1;strokeColor=none;fillColor=none;align=center;verticalAlign=middle;whiteSpace=wrap;rounded=0;dashed=1;" parent="_g4DaSGvke30XTqqvjTM-1" vertex="1">
                    <mxGeometry x="180" y="220" width="40" height="20" as="geometry"/>
                </mxCell>
                <mxCell id="SuP6qpnvCsWETHp8EAkk-14" style="edgeStyle=orthogonalEdgeStyle;rounded=0;orthogonalLoop=1;jettySize=auto;html=1;" parent="_g4DaSGvke30XTqqvjTM-1" source="SuP6qpnvCsWETHp8EAkk-13" target="SuP6qpnvCsWETHp8EAkk-8" edge="1">
                    <mxGeometry relative="1" as="geometry"/>
                </mxCell>
                <mxCell id="SuP6qpnvCsWETHp8EAkk-13" value="" style="shape=curlyBracket;whiteSpace=wrap;html=1;rounded=1;flipH=1;dashed=1;fillColor=none;" parent="_g4DaSGvke30XTqqvjTM-1" vertex="1">
                    <mxGeometry x="250" y="160" width="20" height="70" as="geometry"/>
                </mxCell>
                <mxCell id="O26YXfW-FaEa8M4-9zbY-1" value="Bag?&lt;br&gt;database?" style="text;html=1;strokeColor=none;fillColor=none;align=center;verticalAlign=middle;whiteSpace=wrap;rounded=0;dashed=1;" parent="_g4DaSGvke30XTqqvjTM-1" vertex="1">
                    <mxGeometry x="185" y="350" width="40" height="20" as="geometry"/>
                </mxCell>
                <mxCell id="O26YXfW-FaEa8M4-9zbY-4" style="edgeStyle=orthogonalEdgeStyle;rounded=0;orthogonalLoop=1;jettySize=auto;html=1;" parent="_g4DaSGvke30XTqqvjTM-1" source="O26YXfW-FaEa8M4-9zbY-2" target="O26YXfW-FaEa8M4-9zbY-3" edge="1">
                    <mxGeometry relative="1" as="geometry"/>
                </mxCell>
                <mxCell id="O26YXfW-FaEa8M4-9zbY-2" value="" style="shape=curlyBracket;whiteSpace=wrap;html=1;rounded=1;flipH=1;dashed=1;fillColor=none;" parent="_g4DaSGvke30XTqqvjTM-1" vertex="1">
                    <mxGeometry x="250" y="325" width="20" height="70" as="geometry"/>
                </mxCell>
                <mxCell id="Shihy_Qtj0EQHQhe5kGz-2" value="cpp API" style="edgeStyle=orthogonalEdgeStyle;rounded=0;orthogonalLoop=1;jettySize=auto;html=1;entryX=0;entryY=0;entryDx=0;entryDy=52.5;entryPerimeter=0;" parent="_g4DaSGvke30XTqqvjTM-1" source="O26YXfW-FaEa8M4-9zbY-3" target="Shihy_Qtj0EQHQhe5kGz-0" edge="1">
                    <mxGeometry relative="1" as="geometry"/>
                </mxCell>
                <mxCell id="O26YXfW-FaEa8M4-9zbY-3" value="collect data process&lt;br&gt;(cpp)" style="rounded=1;whiteSpace=wrap;html=1;fillColor=none;" parent="_g4DaSGvke30XTqqvjTM-1" vertex="1">
                    <mxGeometry x="365" y="330" width="120" height="60" as="geometry"/>
                </mxCell>
                <mxCell id="RSBEZsN3AZoCZY6jIYcl-0" style="edgeStyle=orthogonalEdgeStyle;rounded=0;orthogonalLoop=1;jettySize=auto;html=1;" parent="_g4DaSGvke30XTqqvjTM-1" source="Shihy_Qtj0EQHQhe5kGz-0" target="78DqCwq07OOEjY0Ohr4Q-0" edge="1">
                    <mxGeometry relative="1" as="geometry">
                        <mxPoint x="720" y="265" as="targetPoint"/>
                    </mxGeometry>
                </mxCell>
                <mxCell id="Shihy_Qtj0EQHQhe5kGz-0" value="sample database&lt;br&gt;(lmdb + proto)" style="shape=cylinder3;whiteSpace=wrap;html=1;boundedLbl=1;backgroundOutline=1;size=15;dashed=1;fillColor=none;" parent="_g4DaSGvke30XTqqvjTM-1" vertex="1">
                    <mxGeometry x="580" y="225" width="60" height="80" as="geometry"/>
                </mxCell>
                <mxCell id="uAZj58KrHHXQdc1uDm-O-0" value="Tools:&lt;br&gt;- dataset: slice/merge&lt;br&gt;- Plot:" style="rounded=1;whiteSpace=wrap;html=1;fillColor=none;align=left;" parent="_g4DaSGvke30XTqqvjTM-1" vertex="1">
                    <mxGeometry x="365" y="430" width="120" height="60" as="geometry"/>
                </mxCell>
                <mxCell id="qmj0_fMUe-QXnXRRxb3Y-1" style="edgeStyle=orthogonalEdgeStyle;rounded=0;orthogonalLoop=1;jettySize=auto;html=1;entryX=0;entryY=0.5;entryDx=0;entryDy=0;" edge="1" parent="_g4DaSGvke30XTqqvjTM-1" source="uAZj58KrHHXQdc1uDm-O-1" target="qmj0_fMUe-QXnXRRxb3Y-0">
                    <mxGeometry relative="1" as="geometry"/>
                </mxCell>
                <mxCell id="uAZj58KrHHXQdc1uDm-O-1" value="sample&lt;br&gt;(lmdb + proto)" style="shape=cylinder3;whiteSpace=wrap;html=1;boundedLbl=1;backgroundOutline=1;size=15;dashed=1;fillColor=none;" parent="_g4DaSGvke30XTqqvjTM-1" vertex="1">
                    <mxGeometry x="1690" y="1040" width="60" height="80" as="geometry"/>
                </mxCell>
                <mxCell id="uAZj58KrHHXQdc1uDm-O-2" value="lmdb(python)&amp;nbsp;" style="rounded=1;whiteSpace=wrap;html=1;fillColor=none;align=center;" parent="_g4DaSGvke30XTqqvjTM-1" vertex="1">
                    <mxGeometry x="1340" y="845" width="160" height="60" as="geometry"/>
                </mxCell>
                <mxCell id="uAZj58KrHHXQdc1uDm-O-3" value="proto:&lt;br&gt;&lt;div&gt;message Sample{&lt;/div&gt;&lt;div&gt;&amp;nbsp; repeated Trajectory trajectories = 1;&lt;/div&gt;&lt;div&gt;&amp;nbsp; LaneGraph lane_graph = 2;&lt;/div&gt;&lt;div&gt;&amp;nbsp; int32 attention = 3; // attention node index&lt;/div&gt;&lt;div&gt;&amp;nbsp; int32 intention = 4; // intention node index&lt;/div&gt;&lt;div&gt;}&lt;/div&gt;&lt;div&gt;&lt;br&gt;&lt;/div&gt;&lt;div&gt;message Metadata{&lt;/div&gt;&lt;div&gt;&amp;nbsp; repeated string sequence_name_list = 1;&amp;nbsp;&lt;/div&gt;&lt;div&gt;&amp;nbsp; // all the sequence database contains&lt;/div&gt;&lt;div&gt;&amp;nbsp; repeated string sample_name_list = 2;&amp;nbsp;&lt;/div&gt;&lt;div&gt;&amp;nbsp; // all the sample databse contains&lt;/div&gt;&lt;div&gt;}&lt;/div&gt;&lt;div&gt;&lt;br&gt;&lt;/div&gt;&lt;div&gt;&lt;br&gt;&lt;/div&gt;&lt;div&gt;key:value&lt;/div&gt;&lt;div&gt;- meta_data:&amp;nbsp; Metadata&amp;nbsp;&lt;br&gt;- sample_name:&amp;nbsp; Sample&lt;br&gt;&lt;/div&gt;" style="text;html=1;strokeColor=none;fillColor=none;align=left;verticalAlign=middle;whiteSpace=wrap;rounded=0;" parent="_g4DaSGvke30XTqqvjTM-1" vertex="1">
                    <mxGeometry x="1650" y="750" width="260" height="220" as="geometry"/>
                </mxCell>
                <mxCell id="uAZj58KrHHXQdc1uDm-O-8" style="edgeStyle=orthogonalEdgeStyle;rounded=0;orthogonalLoop=1;jettySize=auto;html=1;" parent="_g4DaSGvke30XTqqvjTM-1" source="uAZj58KrHHXQdc1uDm-O-7" target="uAZj58KrHHXQdc1uDm-O-2" edge="1">
                    <mxGeometry relative="1" as="geometry"/>
                </mxCell>
                <mxCell id="uAZj58KrHHXQdc1uDm-O-7" value="&lt;div style=&quot;color: rgb(212 , 212 , 212) ; background-color: rgb(30 , 30 , 30) ; font-family: &amp;#34;droid sans mono&amp;#34; , monospace , monospace , &amp;#34;droid sans fallback&amp;#34; ; font-size: 14px ; line-height: 19px&quot;&gt;&lt;span style=&quot;color: #4ec9b0&quot;&gt;SampleDatabaseLmdb&lt;/span&gt;&lt;/div&gt;- meta_data = meta_data()&amp;nbsp;&lt;br&gt;- sample = get(key)&lt;br&gt;- put(key, sample)" style="rounded=1;whiteSpace=wrap;html=1;fillColor=none;align=left;" parent="_g4DaSGvke30XTqqvjTM-1" vertex="1">
                    <mxGeometry x="1110" y="840" width="160" height="70" as="geometry"/>
                </mxCell>
                <mxCell id="uAZj58KrHHXQdc1uDm-O-11" value="Sample database: python&amp;nbsp; API" style="text;html=1;strokeColor=none;fillColor=none;align=center;verticalAlign=middle;whiteSpace=wrap;rounded=0;" parent="_g4DaSGvke30XTqqvjTM-1" vertex="1">
                    <mxGeometry x="1087.5" y="800" width="205" height="20" as="geometry"/>
                </mxCell>
                <mxCell id="tZaXzsc3S-5njgaquMQ2-0" value="&lt;div style=&quot;color: rgb(212 , 212 , 212) ; background-color: rgb(30 , 30 , 30) ; font-family: &amp;#34;droid sans mono&amp;#34; , monospace , monospace , &amp;#34;droid sans fallback&amp;#34; ; line-height: 19px&quot;&gt;&lt;span style=&quot;color: rgb(220 , 220 , 170)&quot;&gt;&lt;font style=&quot;font-size: 11px&quot;&gt;ArgoverseConverter&lt;/font&gt;&lt;/span&gt;&lt;/div&gt;" style="rounded=1;whiteSpace=wrap;html=1;fillColor=none;align=left;" parent="_g4DaSGvke30XTqqvjTM-1" vertex="1">
                    <mxGeometry x="710" y="700" width="120" height="57.5" as="geometry"/>
                </mxCell>
                <mxCell id="wAjEDZ8VuiU0E2C-fXOC-8" style="edgeStyle=orthogonalEdgeStyle;rounded=0;orthogonalLoop=1;jettySize=auto;html=1;exitX=1;exitY=0.5;exitDx=0;exitDy=0;entryX=0;entryY=0;entryDx=0;entryDy=52.5;entryPerimeter=0;" parent="_g4DaSGvke30XTqqvjTM-1" source="wAjEDZ8VuiU0E2C-fXOC-1" target="uAZj58KrHHXQdc1uDm-O-1" edge="1">
                    <mxGeometry relative="1" as="geometry"/>
                </mxCell>
                <mxCell id="wAjEDZ8VuiU0E2C-fXOC-1" value="" style="rounded=1;whiteSpace=wrap;html=1;dashed=1;fillColor=none;" parent="_g4DaSGvke30XTqqvjTM-1" vertex="1">
                    <mxGeometry x="1070" y="1180" width="460" height="140" as="geometry"/>
                </mxCell>
                <mxCell id="wAjEDZ8VuiU0E2C-fXOC-2" value="lmdb(c++)" style="rounded=1;whiteSpace=wrap;html=1;fillColor=none;align=center;" parent="_g4DaSGvke30XTqqvjTM-1" vertex="1">
                    <mxGeometry x="1350" y="1225" width="160" height="60" as="geometry"/>
                </mxCell>
                <mxCell id="wAjEDZ8VuiU0E2C-fXOC-5" style="edgeStyle=orthogonalEdgeStyle;rounded=0;orthogonalLoop=1;jettySize=auto;html=1;" parent="_g4DaSGvke30XTqqvjTM-1" source="wAjEDZ8VuiU0E2C-fXOC-6" target="wAjEDZ8VuiU0E2C-fXOC-2" edge="1">
                    <mxGeometry relative="1" as="geometry"/>
                </mxCell>
                <mxCell id="wAjEDZ8VuiU0E2C-fXOC-6" value="&lt;div style=&quot;color: rgb(212 , 212 , 212) ; background-color: rgb(30 , 30 , 30) ; font-family: &amp;#34;droid sans mono&amp;#34; , monospace , monospace , &amp;#34;droid sans fallback&amp;#34; ; font-size: 14px ; line-height: 19px&quot;&gt;&lt;span style=&quot;color: #4ec9b0&quot;&gt;SampleDatabaseLmdb&lt;/span&gt;&lt;/div&gt;- meta_data = meta_data()&amp;nbsp;&lt;br&gt;- sample = get(key)&lt;br&gt;- put(key, sample)" style="rounded=1;whiteSpace=wrap;html=1;fillColor=none;align=left;" parent="_g4DaSGvke30XTqqvjTM-1" vertex="1">
                    <mxGeometry x="1120" y="1220" width="160" height="70" as="geometry"/>
                </mxCell>
                <mxCell id="wAjEDZ8VuiU0E2C-fXOC-7" value="Sample database: C++ API" style="text;html=1;strokeColor=none;fillColor=none;align=center;verticalAlign=middle;whiteSpace=wrap;rounded=0;" parent="_g4DaSGvke30XTqqvjTM-1" vertex="1">
                    <mxGeometry x="1097.5" y="1180" width="205" height="20" as="geometry"/>
                </mxCell>
                <mxCell id="Gk68E103cxTyedhqfcVZ-2" style="edgeStyle=orthogonalEdgeStyle;rounded=0;orthogonalLoop=1;jettySize=auto;html=1;" parent="_g4DaSGvke30XTqqvjTM-1" source="wAjEDZ8VuiU0E2C-fXOC-22" target="Gk68E103cxTyedhqfcVZ-1" edge="1">
                    <mxGeometry relative="1" as="geometry"/>
                </mxCell>
                <mxCell id="wAjEDZ8VuiU0E2C-fXOC-22" value="&lt;div style=&quot;color: rgb(212 , 212 , 212) ; background-color: rgb(30 , 30 , 30) ; font-family: &amp;#34;droid sans mono&amp;#34; , monospace , monospace , &amp;#34;droid sans fallback&amp;#34; ; font-size: 14px ; line-height: 19px&quot;&gt;&lt;div style=&quot;font-family: &amp;#34;droid sans mono&amp;#34; , monospace , monospace , &amp;#34;droid sans fallback&amp;#34; ; line-height: 19px&quot;&gt;&lt;span style=&quot;color: #569cd6 ; font-weight: bold&quot;&gt;sequence_filter&lt;/span&gt;&lt;/div&gt;&lt;/div&gt;" style="rounded=1;whiteSpace=wrap;html=1;fillColor=none;align=center;" parent="_g4DaSGvke30XTqqvjTM-1" vertex="1">
                    <mxGeometry x="-390" y="1120" width="120" height="60" as="geometry"/>
                </mxCell>
                <mxCell id="wAjEDZ8VuiU0E2C-fXOC-24" style="edgeStyle=orthogonalEdgeStyle;rounded=0;orthogonalLoop=1;jettySize=auto;html=1;exitX=1;exitY=0.5;exitDx=0;exitDy=0;entryX=0;entryY=0.5;entryDx=0;entryDy=0;" parent="_g4DaSGvke30XTqqvjTM-1" source="wAjEDZ8VuiU0E2C-fXOC-23" target="wAjEDZ8VuiU0E2C-fXOC-22" edge="1">
                    <mxGeometry relative="1" as="geometry">
                        <mxPoint x="-370" y="1150" as="targetPoint"/>
                    </mxGeometry>
                </mxCell>
                <mxCell id="wAjEDZ8VuiU0E2C-fXOC-23" value="&lt;div style=&quot;color: rgb(212 , 212 , 212) ; background-color: rgb(30 , 30 , 30) ; font-family: &amp;#34;droid sans mono&amp;#34; , monospace , monospace , &amp;#34;droid sans fallback&amp;#34; ; font-size: 14px ; line-height: 19px&quot;&gt;&lt;span style=&quot;color: #569cd6 ; font-weight: bold&quot;&gt;rosbag_filter&lt;/span&gt;&lt;/div&gt;" style="rounded=1;whiteSpace=wrap;html=1;fillColor=none;align=center;" parent="_g4DaSGvke30XTqqvjTM-1" vertex="1">
                    <mxGeometry x="-1090" y="1120" width="120" height="60" as="geometry"/>
                </mxCell>
                <mxCell id="wAjEDZ8VuiU0E2C-fXOC-25" value="localization: ego state&lt;br&gt;tracking: object state&lt;br&gt;trafic_signal" style="text;html=1;strokeColor=none;fillColor=none;align=left;verticalAlign=middle;whiteSpace=wrap;rounded=0;" parent="_g4DaSGvke30XTqqvjTM-1" vertex="1">
                    <mxGeometry x="-1100" y="1200" width="170" height="80" as="geometry"/>
                </mxCell>
                <mxCell id="wAjEDZ8VuiU0E2C-fXOC-26" value="&lt;br&gt;sequence:&amp;nbsp;&lt;br&gt;- id&lt;br&gt;- SequenceData: &lt;br&gt;&amp;nbsp; - trajectories: 0 is agent, ref time line" style="text;html=1;strokeColor=none;fillColor=none;align=left;verticalAlign=middle;whiteSpace=wrap;rounded=0;" parent="_g4DaSGvke30XTqqvjTM-1" vertex="1">
                    <mxGeometry x="-360" y="1510" width="210" height="60" as="geometry"/>
                </mxCell>
                <mxCell id="4f4ZlgQCkmpkjtm2Scpx-75" style="edgeStyle=orthogonalEdgeStyle;rounded=0;orthogonalLoop=1;jettySize=auto;html=1;" parent="_g4DaSGvke30XTqqvjTM-1" source="Gk68E103cxTyedhqfcVZ-1" edge="1">
                    <mxGeometry relative="1" as="geometry">
                        <mxPoint x="700" y="1150" as="targetPoint"/>
                    </mxGeometry>
                </mxCell>
                <mxCell id="Gk68E103cxTyedhqfcVZ-1" value="&lt;div style=&quot;color: rgb(212 , 212 , 212) ; background-color: rgb(30 , 30 , 30) ; font-family: &amp;#34;droid sans mono&amp;#34; , monospace , monospace , &amp;#34;droid sans fallback&amp;#34; ; font-size: 14px ; line-height: 19px&quot;&gt;&lt;span style=&quot;color: #569cd6 ; font-weight: bold&quot;&gt;sampler&lt;/span&gt;&lt;/div&gt;" style="whiteSpace=wrap;html=1;rounded=1;fillColor=none;" parent="_g4DaSGvke30XTqqvjTM-1" vertex="1">
                    <mxGeometry x="172.5" y="1120" width="120" height="60" as="geometry"/>
                </mxCell>
                <mxCell id="Gk68E103cxTyedhqfcVZ-4" style="edgeStyle=orthogonalEdgeStyle;rounded=0;orthogonalLoop=1;jettySize=auto;html=1;exitX=0.5;exitY=1;exitDx=0;exitDy=0;" parent="_g4DaSGvke30XTqqvjTM-1" source="Gk68E103cxTyedhqfcVZ-3" target="Gk68E103cxTyedhqfcVZ-1" edge="1">
                    <mxGeometry relative="1" as="geometry"/>
                </mxCell>
                <mxCell id="Gk68E103cxTyedhqfcVZ-3" value="HD map" style="rounded=1;whiteSpace=wrap;html=1;" parent="_g4DaSGvke30XTqqvjTM-1" vertex="1">
                    <mxGeometry x="172.5" y="1020" width="120" height="60" as="geometry"/>
                </mxCell>
                <mxCell id="Gk68E103cxTyedhqfcVZ-5" value="" style="endArrow=none;dashed=1;html=1;" parent="_g4DaSGvke30XTqqvjTM-1" edge="1">
                    <mxGeometry width="50" height="50" relative="1" as="geometry">
                        <mxPoint x="-900" y="1705" as="sourcePoint"/>
                        <mxPoint x="-710" y="1705" as="targetPoint"/>
                    </mxGeometry>
                </mxCell>
                <mxCell id="Gk68E103cxTyedhqfcVZ-7" value="&lt;meta charset=&quot;utf-8&quot;&gt;&lt;span style=&quot;color: rgb(240, 240, 240); font-family: helvetica; font-size: 12px; font-style: normal; font-weight: 400; letter-spacing: normal; text-align: left; text-indent: 0px; text-transform: none; word-spacing: 0px; background-color: rgb(42, 42, 42); display: inline; float: none;&quot;&gt;&lt;span&gt;&amp;nbsp;&lt;/span&gt;timeline&lt;/span&gt;" style="text;whiteSpace=wrap;html=1;" parent="_g4DaSGvke30XTqqvjTM-1" vertex="1">
                    <mxGeometry x="-960" y="1685" width="70" height="30" as="geometry"/>
                </mxCell>
                <mxCell id="Gk68E103cxTyedhqfcVZ-8" value="&lt;font face=&quot;helvetica&quot;&gt;ego traj&lt;/font&gt;" style="text;whiteSpace=wrap;html=1;" parent="_g4DaSGvke30XTqqvjTM-1" vertex="1">
                    <mxGeometry x="-950" y="1805" width="70" height="30" as="geometry"/>
                </mxCell>
                <mxCell id="Gk68E103cxTyedhqfcVZ-10" value="" style="endArrow=none;dashed=1;html=1;" parent="_g4DaSGvke30XTqqvjTM-1" edge="1">
                    <mxGeometry width="50" height="50" relative="1" as="geometry">
                        <mxPoint x="-870" y="1819.5" as="sourcePoint"/>
                        <mxPoint x="-780" y="1819.5" as="targetPoint"/>
                    </mxGeometry>
                </mxCell>
                <mxCell id="Gk68E103cxTyedhqfcVZ-11" value="&lt;span style=&quot;color: rgb(240 , 240 , 240) ; font-family: &amp;#34;helvetica&amp;#34; ; font-size: 12px ; font-style: normal ; font-weight: 400 ; letter-spacing: normal ; text-align: left ; text-indent: 0px ; text-transform: none ; word-spacing: 0px ; background-color: rgb(42 , 42 , 42) ; display: inline ; float: none&quot;&gt;obs traj&lt;/span&gt;" style="text;whiteSpace=wrap;html=1;" parent="_g4DaSGvke30XTqqvjTM-1" vertex="1">
                    <mxGeometry x="-950" y="1775" width="90" height="30" as="geometry"/>
                </mxCell>
                <mxCell id="Gk68E103cxTyedhqfcVZ-12" value="" style="endArrow=none;dashed=1;html=1;" parent="_g4DaSGvke30XTqqvjTM-1" edge="1">
                    <mxGeometry width="50" height="50" relative="1" as="geometry">
                        <mxPoint x="-870" y="1785" as="sourcePoint"/>
                        <mxPoint x="-780" y="1785" as="targetPoint"/>
                    </mxGeometry>
                </mxCell>
                <mxCell id="Gk68E103cxTyedhqfcVZ-13" value="" style="endArrow=none;dashed=1;html=1;" parent="_g4DaSGvke30XTqqvjTM-1" edge="1">
                    <mxGeometry width="50" height="50" relative="1" as="geometry">
                        <mxPoint x="-860" y="1795" as="sourcePoint"/>
                        <mxPoint x="-770" y="1795" as="targetPoint"/>
                    </mxGeometry>
                </mxCell>
                <mxCell id="Gk68E103cxTyedhqfcVZ-14" value="" style="endArrow=none;dashed=1;html=1;" parent="_g4DaSGvke30XTqqvjTM-1" edge="1">
                    <mxGeometry width="50" height="50" relative="1" as="geometry">
                        <mxPoint x="-880" y="1805" as="sourcePoint"/>
                        <mxPoint x="-790" y="1805" as="targetPoint"/>
                    </mxGeometry>
                </mxCell>
                <mxCell id="Gk68E103cxTyedhqfcVZ-16" value="scene" style="text;html=1;strokeColor=none;fillColor=none;align=center;verticalAlign=middle;whiteSpace=wrap;rounded=0;" parent="_g4DaSGvke30XTqqvjTM-1" vertex="1">
                    <mxGeometry x="-990" y="1645" width="40" height="20" as="geometry"/>
                </mxCell>
                <mxCell id="4f4ZlgQCkmpkjtm2Scpx-1" value="&lt;font face=&quot;helvetica&quot;&gt;id&lt;/font&gt;" style="text;whiteSpace=wrap;html=1;" parent="_g4DaSGvke30XTqqvjTM-1" vertex="1">
                    <mxGeometry x="-460" y="1550" width="70" height="30" as="geometry"/>
                </mxCell>
                <mxCell id="4f4ZlgQCkmpkjtm2Scpx-2" value="&lt;font face=&quot;helvetica&quot;&gt;agent traj&lt;/font&gt;" style="text;whiteSpace=wrap;html=1;" parent="_g4DaSGvke30XTqqvjTM-1" vertex="1">
                    <mxGeometry x="-440" y="1605" width="70" height="30" as="geometry"/>
                </mxCell>
                <mxCell id="4f4ZlgQCkmpkjtm2Scpx-3" value="" style="endArrow=none;dashed=1;html=1;fillColor=#ffe6cc;strokeColor=#d79b00;" parent="_g4DaSGvke30XTqqvjTM-1" edge="1">
                    <mxGeometry width="50" height="50" relative="1" as="geometry">
                        <mxPoint x="-370" y="1620" as="sourcePoint"/>
                        <mxPoint x="-280" y="1620" as="targetPoint"/>
                    </mxGeometry>
                </mxCell>
                <mxCell id="4f4ZlgQCkmpkjtm2Scpx-4" value="&lt;span style=&quot;color: rgb(240 , 240 , 240) ; font-family: &amp;#34;helvetica&amp;#34; ; font-size: 12px ; font-style: normal ; font-weight: 400 ; letter-spacing: normal ; text-align: left ; text-indent: 0px ; text-transform: none ; word-spacing: 0px ; background-color: rgb(42 , 42 , 42) ; display: inline ; float: none&quot;&gt;obs trraj&lt;/span&gt;" style="text;whiteSpace=wrap;html=1;" parent="_g4DaSGvke30XTqqvjTM-1" vertex="1">
                    <mxGeometry x="-440" y="1640" width="50" height="30" as="geometry"/>
                </mxCell>
                <mxCell id="4f4ZlgQCkmpkjtm2Scpx-5" value="" style="endArrow=none;dashed=1;html=1;" parent="_g4DaSGvke30XTqqvjTM-1" edge="1">
                    <mxGeometry width="50" height="50" relative="1" as="geometry">
                        <mxPoint x="-360" y="1635" as="sourcePoint"/>
                        <mxPoint x="-270" y="1635" as="targetPoint"/>
                    </mxGeometry>
                </mxCell>
                <mxCell id="4f4ZlgQCkmpkjtm2Scpx-6" value="" style="endArrow=none;dashed=1;html=1;" parent="_g4DaSGvke30XTqqvjTM-1" edge="1">
                    <mxGeometry width="50" height="50" relative="1" as="geometry">
                        <mxPoint x="-350" y="1649" as="sourcePoint"/>
                        <mxPoint x="-260" y="1649" as="targetPoint"/>
                    </mxGeometry>
                </mxCell>
                <mxCell id="4f4ZlgQCkmpkjtm2Scpx-7" value="" style="endArrow=none;dashed=1;html=1;" parent="_g4DaSGvke30XTqqvjTM-1" edge="1">
                    <mxGeometry width="50" height="50" relative="1" as="geometry">
                        <mxPoint x="-360" y="1660" as="sourcePoint"/>
                        <mxPoint x="-270" y="1660" as="targetPoint"/>
                    </mxGeometry>
                </mxCell>
                <mxCell id="4f4ZlgQCkmpkjtm2Scpx-9" value="&lt;span style=&quot;text-align: left&quot;&gt;sequence&lt;/span&gt;" style="text;html=1;strokeColor=none;fillColor=none;align=center;verticalAlign=middle;whiteSpace=wrap;rounded=0;" parent="_g4DaSGvke30XTqqvjTM-1" vertex="1">
                    <mxGeometry x="-460" y="1510" width="40" height="20" as="geometry"/>
                </mxCell>
                <mxCell id="4f4ZlgQCkmpkjtm2Scpx-10" value="" style="shape=curlyBracket;whiteSpace=wrap;html=1;rounded=1;fillColor=none;" parent="_g4DaSGvke30XTqqvjTM-1" vertex="1">
                    <mxGeometry x="-960" y="1785" width="10" height="40" as="geometry"/>
                </mxCell>
                <mxCell id="4f4ZlgQCkmpkjtm2Scpx-11" value="&lt;font face=&quot;helvetica&quot;&gt;ego states&lt;/font&gt;" style="text;whiteSpace=wrap;html=1;" parent="_g4DaSGvke30XTqqvjTM-1" vertex="1">
                    <mxGeometry x="-970" y="1715" width="70" height="30" as="geometry"/>
                </mxCell>
                <mxCell id="4f4ZlgQCkmpkjtm2Scpx-12" value="" style="endArrow=none;dashed=1;html=1;" parent="_g4DaSGvke30XTqqvjTM-1" edge="1">
                    <mxGeometry width="50" height="50" relative="1" as="geometry">
                        <mxPoint x="-900" y="1729.5" as="sourcePoint"/>
                        <mxPoint x="-810" y="1729.5" as="targetPoint"/>
                    </mxGeometry>
                </mxCell>
                <mxCell id="4f4ZlgQCkmpkjtm2Scpx-15" value="trajectories" style="text;html=1;strokeColor=none;fillColor=none;align=center;verticalAlign=middle;whiteSpace=wrap;rounded=0;" parent="_g4DaSGvke30XTqqvjTM-1" vertex="1">
                    <mxGeometry x="-970" y="1755" width="40" height="20" as="geometry"/>
                </mxCell>
                <mxCell id="4f4ZlgQCkmpkjtm2Scpx-16" value="offset ref to timeline" style="text;html=1;strokeColor=none;fillColor=none;align=center;verticalAlign=middle;whiteSpace=wrap;rounded=0;" parent="_g4DaSGvke30XTqqvjTM-1" vertex="1">
                    <mxGeometry x="-750" y="1775" width="40" height="20" as="geometry"/>
                </mxCell>
                <mxCell id="4f4ZlgQCkmpkjtm2Scpx-17" value="&lt;h1&gt;Time Line&lt;/h1&gt;&lt;div style=&quot;line-height: 19px&quot;&gt;&lt;div style=&quot;color: rgb(212 , 212 , 212) ; font-family: &amp;#34;droid sans mono&amp;#34; , monospace , monospace , &amp;#34;droid sans fallback&amp;#34; ; font-size: 14px ; background-color: rgb(30 , 30 , 30)&quot;&gt;&lt;span style=&quot;color: #ce9178&quot;&gt;        Map: &lt;/span&gt;&lt;/div&gt;&lt;div style=&quot;color: rgb(212 , 212 , 212) ; font-family: &amp;#34;droid sans mono&amp;#34; , monospace , monospace , &amp;#34;droid sans fallback&amp;#34; ; font-size: 14px ; background-color: rgb(30 , 30 , 30)&quot;&gt;&lt;span style=&quot;color: #ce9178&quot;&gt;            - coordinate: HDmap &lt;/span&gt;&lt;/div&gt;&lt;div style=&quot;color: rgb(212 , 212 , 212) ; font-family: &amp;#34;droid sans mono&amp;#34; , monospace , monospace , &amp;#34;droid sans fallback&amp;#34; ; font-size: 14px ; background-color: rgb(30 , 30 , 30)&quot;&gt;&lt;span style=&quot;color: #ce9178&quot;&gt;            - timeline: universal time&lt;/span&gt;&lt;/div&gt;&lt;div style=&quot;color: rgb(212 , 212 , 212) ; font-family: &amp;#34;droid sans mono&amp;#34; , monospace , monospace , &amp;#34;droid sans fallback&amp;#34; ; font-size: 14px ; background-color: rgb(30 , 30 , 30)&quot;&gt;&lt;span style=&quot;color: #ce9178&quot;&gt;Scene:&lt;/span&gt;&lt;/div&gt;&lt;div style=&quot;color: rgb(212 , 212 , 212) ; font-family: &amp;#34;droid sans mono&amp;#34; , monospace , monospace , &amp;#34;droid sans fallback&amp;#34; ; font-size: 14px ; background-color: rgb(30 , 30 , 30)&quot;&gt;&lt;div&gt;&lt;span style=&quot;color: rgb(206 , 145 , 120)&quot;&gt;- coordinate: HDmap&lt;/span&gt;&lt;/div&gt;&lt;div&gt;&lt;span style=&quot;color: rgb(206 , 145 , 120)&quot;&gt;- timeline: bag time&lt;/span&gt;&lt;/div&gt;&lt;div&gt;&lt;span style=&quot;color: rgb(206 , 145 , 120)&quot;&gt;Sequence:&lt;/span&gt;&lt;/div&gt;&lt;/div&gt;&lt;div style=&quot;color: rgb(212 , 212 , 212) ; font-family: &amp;#34;droid sans mono&amp;#34; , monospace , monospace , &amp;#34;droid sans fallback&amp;#34; ; font-size: 14px ; background-color: rgb(30 , 30 , 30)&quot;&gt;&lt;span style=&quot;color: #ce9178&quot;&gt;            - coordinate: HDmap&lt;/span&gt;&lt;/div&gt;&lt;div style=&quot;color: rgb(212 , 212 , 212) ; font-family: &amp;#34;droid sans mono&amp;#34; , monospace , monospace , &amp;#34;droid sans fallback&amp;#34; ; font-size: 14px ; background-color: rgb(30 , 30 , 30)&quot;&gt;&lt;span style=&quot;color: #ce9178&quot;&gt;            - timeline: agent timeline&lt;/span&gt;&lt;/div&gt;&lt;div style=&quot;color: rgb(212 , 212 , 212) ; font-family: &amp;#34;droid sans mono&amp;#34; , monospace , monospace , &amp;#34;droid sans fallback&amp;#34; ; font-size: 14px ; background-color: rgb(30 , 30 , 30)&quot;&gt;&lt;span style=&quot;color: #ce9178&quot;&gt;Sample:&lt;/span&gt;&lt;/div&gt;&lt;div style=&quot;font-family: &amp;#34;droid sans mono&amp;#34; , monospace , monospace , &amp;#34;droid sans fallback&amp;#34; ; font-size: 14px ; background-color: rgb(30 , 30 , 30)&quot;&gt;&lt;div style=&quot;color: rgb(212 , 212 , 212)&quot;&gt;&lt;span style=&quot;color: rgb(206 , 145 , 120)&quot;&gt;- coordinate: HDmap&lt;/span&gt;&lt;/div&gt;&lt;div style=&quot;color: rgb(212 , 212 , 212)&quot;&gt;&lt;span style=&quot;color: rgb(206 , 145 , 120)&quot;&gt;- timeline: agent timeline (&lt;/span&gt;&lt;span style=&quot;font-family: &amp;#34;droid sans mono&amp;#34; , monospace , monospace , &amp;#34;droid sans fallback&amp;#34; ; color: rgb(156 , 220 , 254)&quot;&gt;observation_horizon&lt;/span&gt;&lt;span style=&quot;font-family: &amp;#34;droid sans mono&amp;#34; , monospace , monospace , &amp;#34;droid sans fallback&amp;#34;&quot;&gt; + &lt;/span&gt;&lt;span style=&quot;font-family: &amp;#34;droid sans mono&amp;#34; , monospace , monospace , &amp;#34;droid sans fallback&amp;#34; ; color: rgb(156 , 220 , 254)&quot;&gt;prediction_horizon&lt;/span&gt;&lt;span style=&quot;color: rgb(206 , 145 , 120)&quot;&gt;)&lt;/span&gt;&lt;/div&gt;&lt;/div&gt;&lt;div style=&quot;color: rgb(212 , 212 , 212) ; font-family: &amp;#34;droid sans mono&amp;#34; , monospace , monospace , &amp;#34;droid sans fallback&amp;#34; ; font-size: 14px ; background-color: rgb(30 , 30 , 30)&quot;&gt;&lt;span style=&quot;color: rgb(206 , 145 , 120)&quot;&gt;&amp;nbsp;(start from agent begin point), e.g. [3, 18, 48) history traj 3-18, predict traj 18-48)&lt;/span&gt;&lt;/div&gt;&lt;/div&gt;" style="text;html=1;strokeColor=none;fillColor=none;spacing=5;spacingTop=-20;whiteSpace=wrap;overflow=hidden;rounded=0;align=left;" parent="_g4DaSGvke30XTqqvjTM-1" vertex="1">
                    <mxGeometry x="-2040" y="690" width="610" height="440" as="geometry"/>
                </mxCell>
                <mxCell id="4f4ZlgQCkmpkjtm2Scpx-20" value="" style="shape=curlyBracket;whiteSpace=wrap;html=1;rounded=1;fillColor=none;size=0.5;" parent="_g4DaSGvke30XTqqvjTM-1" vertex="1">
                    <mxGeometry x="-455" y="1615" width="10" height="50" as="geometry"/>
                </mxCell>
                <mxCell id="4f4ZlgQCkmpkjtm2Scpx-21" value="&lt;meta charset=&quot;utf-8&quot;&gt;&lt;span style=&quot;color: rgb(240, 240, 240); font-family: helvetica; font-size: 12px; font-style: normal; font-weight: 400; letter-spacing: normal; text-align: left; text-indent: 0px; text-transform: none; word-spacing: 0px; background-color: rgb(42, 42, 42); display: inline; float: none;&quot;&gt;trajectories&lt;/span&gt;" style="text;whiteSpace=wrap;html=1;" parent="_g4DaSGvke30XTqqvjTM-1" vertex="1">
                    <mxGeometry x="-460" y="1580" width="80" height="30" as="geometry"/>
                </mxCell>
                <mxCell id="4f4ZlgQCkmpkjtm2Scpx-23" value="time line offset ref to agent" style="text;html=1;strokeColor=none;fillColor=none;align=center;verticalAlign=middle;whiteSpace=wrap;rounded=0;" parent="_g4DaSGvke30XTqqvjTM-1" vertex="1">
                    <mxGeometry x="-220" y="1630" width="70" height="20" as="geometry"/>
                </mxCell>
                <mxCell id="4f4ZlgQCkmpkjtm2Scpx-24" value="" style="rounded=0;whiteSpace=wrap;html=1;fillColor=none;" parent="_g4DaSGvke30XTqqvjTM-1" vertex="1">
                    <mxGeometry x="-480" y="1740" width="330" height="210" as="geometry"/>
                </mxCell>
                <mxCell id="4f4ZlgQCkmpkjtm2Scpx-25" value="&lt;br&gt;sequence:&amp;nbsp;&lt;br&gt;- id&lt;br&gt;- SequenceData: &lt;br&gt;&amp;nbsp; - trajectories: 0 is agent, ref time line" style="text;html=1;strokeColor=none;fillColor=none;align=left;verticalAlign=middle;whiteSpace=wrap;rounded=0;" parent="_g4DaSGvke30XTqqvjTM-1" vertex="1">
                    <mxGeometry x="-470" y="1750" width="210" height="60" as="geometry"/>
                </mxCell>
                <mxCell id="4f4ZlgQCkmpkjtm2Scpx-27" value="&lt;font face=&quot;helvetica&quot;&gt;agent traj&lt;/font&gt;" style="text;whiteSpace=wrap;html=1;" parent="_g4DaSGvke30XTqqvjTM-1" vertex="1">
                    <mxGeometry x="-440" y="1845" width="70" height="30" as="geometry"/>
                </mxCell>
                <mxCell id="4f4ZlgQCkmpkjtm2Scpx-28" value="" style="endArrow=none;dashed=1;html=1;fillColor=#ffe6cc;strokeColor=#d79b00;" parent="_g4DaSGvke30XTqqvjTM-1" edge="1">
                    <mxGeometry width="50" height="50" relative="1" as="geometry">
                        <mxPoint x="-370" y="1860" as="sourcePoint"/>
                        <mxPoint x="-280" y="1860" as="targetPoint"/>
                    </mxGeometry>
                </mxCell>
                <mxCell id="4f4ZlgQCkmpkjtm2Scpx-29" value="&lt;span style=&quot;color: rgb(240 , 240 , 240) ; font-family: &amp;#34;helvetica&amp;#34; ; font-size: 12px ; font-style: normal ; font-weight: 400 ; letter-spacing: normal ; text-align: left ; text-indent: 0px ; text-transform: none ; word-spacing: 0px ; background-color: rgb(42 , 42 , 42) ; display: inline ; float: none&quot;&gt;obs trraj&lt;/span&gt;" style="text;whiteSpace=wrap;html=1;" parent="_g4DaSGvke30XTqqvjTM-1" vertex="1">
                    <mxGeometry x="-440" y="1880" width="50" height="30" as="geometry"/>
                </mxCell>
                <mxCell id="4f4ZlgQCkmpkjtm2Scpx-30" value="" style="endArrow=none;dashed=1;html=1;" parent="_g4DaSGvke30XTqqvjTM-1" edge="1">
                    <mxGeometry width="50" height="50" relative="1" as="geometry">
                        <mxPoint x="-360" y="1875" as="sourcePoint"/>
                        <mxPoint x="-270" y="1875" as="targetPoint"/>
                    </mxGeometry>
                </mxCell>
                <mxCell id="4f4ZlgQCkmpkjtm2Scpx-31" value="" style="endArrow=none;dashed=1;html=1;" parent="_g4DaSGvke30XTqqvjTM-1" edge="1">
                    <mxGeometry width="50" height="50" relative="1" as="geometry">
                        <mxPoint x="-350" y="1889" as="sourcePoint"/>
                        <mxPoint x="-260" y="1889" as="targetPoint"/>
                    </mxGeometry>
                </mxCell>
                <mxCell id="4f4ZlgQCkmpkjtm2Scpx-32" value="" style="endArrow=none;dashed=1;html=1;" parent="_g4DaSGvke30XTqqvjTM-1" edge="1">
                    <mxGeometry width="50" height="50" relative="1" as="geometry">
                        <mxPoint x="-360" y="1900" as="sourcePoint"/>
                        <mxPoint x="-270" y="1900" as="targetPoint"/>
                    </mxGeometry>
                </mxCell>
                <mxCell id="4f4ZlgQCkmpkjtm2Scpx-34" value="" style="shape=curlyBracket;whiteSpace=wrap;html=1;rounded=1;fillColor=none;size=0.5;" parent="_g4DaSGvke30XTqqvjTM-1" vertex="1">
                    <mxGeometry x="-455" y="1855" width="10" height="50" as="geometry"/>
                </mxCell>
                <mxCell id="4f4ZlgQCkmpkjtm2Scpx-35" value="&lt;meta charset=&quot;utf-8&quot;&gt;&lt;span style=&quot;color: rgb(240, 240, 240); font-family: helvetica; font-size: 12px; font-style: normal; font-weight: 400; letter-spacing: normal; text-align: left; text-indent: 0px; text-transform: none; word-spacing: 0px; background-color: rgb(42, 42, 42); display: inline; float: none;&quot;&gt;trajectories&lt;/span&gt;" style="text;whiteSpace=wrap;html=1;" parent="_g4DaSGvke30XTqqvjTM-1" vertex="1">
                    <mxGeometry x="-460" y="1820" width="80" height="30" as="geometry"/>
                </mxCell>
                <mxCell id="4f4ZlgQCkmpkjtm2Scpx-37" value="" style="shape=curlyBracket;whiteSpace=wrap;html=1;rounded=1;fillColor=none;" parent="_g4DaSGvke30XTqqvjTM-1" vertex="1">
                    <mxGeometry x="-530" y="1515" width="20" height="485" as="geometry"/>
                </mxCell>
                <mxCell id="4f4ZlgQCkmpkjtm2Scpx-38" value="..." style="text;html=1;strokeColor=none;fillColor=none;align=center;verticalAlign=middle;whiteSpace=wrap;rounded=0;" parent="_g4DaSGvke30XTqqvjTM-1" vertex="1">
                    <mxGeometry x="-350" y="1990" width="40" height="20" as="geometry"/>
                </mxCell>
                <mxCell id="4f4ZlgQCkmpkjtm2Scpx-39" value="&lt;font face=&quot;helvetica&quot;&gt;agent traj&lt;/font&gt;" style="text;whiteSpace=wrap;html=1;" parent="_g4DaSGvke30XTqqvjTM-1" vertex="1">
                    <mxGeometry x="-45" y="1435" width="70" height="30" as="geometry"/>
                </mxCell>
                <mxCell id="4f4ZlgQCkmpkjtm2Scpx-40" value="" style="endArrow=none;dashed=1;html=1;" parent="_g4DaSGvke30XTqqvjTM-1" edge="1">
                    <mxGeometry width="50" height="50" relative="1" as="geometry">
                        <mxPoint x="25" y="1450" as="sourcePoint"/>
                        <mxPoint x="115" y="1450" as="targetPoint"/>
                    </mxGeometry>
                </mxCell>
                <mxCell id="4f4ZlgQCkmpkjtm2Scpx-41" value="&lt;span style=&quot;color: rgb(240 , 240 , 240) ; font-family: &amp;#34;helvetica&amp;#34; ; font-size: 12px ; font-style: normal ; font-weight: 400 ; letter-spacing: normal ; text-align: left ; text-indent: 0px ; text-transform: none ; word-spacing: 0px ; background-color: rgb(42 , 42 , 42) ; display: inline ; float: none&quot;&gt;obs trraj&lt;/span&gt;" style="text;whiteSpace=wrap;html=1;" parent="_g4DaSGvke30XTqqvjTM-1" vertex="1">
                    <mxGeometry x="-45" y="1470" width="50" height="30" as="geometry"/>
                </mxCell>
                <mxCell id="4f4ZlgQCkmpkjtm2Scpx-42" value="" style="endArrow=none;dashed=1;html=1;" parent="_g4DaSGvke30XTqqvjTM-1" edge="1">
                    <mxGeometry width="50" height="50" relative="1" as="geometry">
                        <mxPoint x="35" y="1465" as="sourcePoint"/>
                        <mxPoint x="125" y="1465" as="targetPoint"/>
                    </mxGeometry>
                </mxCell>
                <mxCell id="4f4ZlgQCkmpkjtm2Scpx-43" value="" style="endArrow=none;dashed=1;html=1;" parent="_g4DaSGvke30XTqqvjTM-1" edge="1">
                    <mxGeometry width="50" height="50" relative="1" as="geometry">
                        <mxPoint x="45" y="1479" as="sourcePoint"/>
                        <mxPoint x="135" y="1479" as="targetPoint"/>
                    </mxGeometry>
                </mxCell>
                <mxCell id="4f4ZlgQCkmpkjtm2Scpx-44" value="" style="endArrow=none;dashed=1;html=1;" parent="_g4DaSGvke30XTqqvjTM-1" edge="1">
                    <mxGeometry width="50" height="50" relative="1" as="geometry">
                        <mxPoint x="35" y="1490" as="sourcePoint"/>
                        <mxPoint x="125" y="1490" as="targetPoint"/>
                    </mxGeometry>
                </mxCell>
                <mxCell id="4f4ZlgQCkmpkjtm2Scpx-45" value="" style="shape=curlyBracket;whiteSpace=wrap;html=1;rounded=1;fillColor=none;size=0.5;" parent="_g4DaSGvke30XTqqvjTM-1" vertex="1">
                    <mxGeometry x="-60" y="1445" width="10" height="50" as="geometry"/>
                </mxCell>
                <mxCell id="4f4ZlgQCkmpkjtm2Scpx-47" value="" style="rounded=0;whiteSpace=wrap;html=1;strokeColor=#2D7600;fontColor=#ffffff;fillColor=none;" parent="_g4DaSGvke30XTqqvjTM-1" vertex="1">
                    <mxGeometry x="25" y="1440" width="50" height="60" as="geometry"/>
                </mxCell>
                <mxCell id="4f4ZlgQCkmpkjtm2Scpx-49" value="" style="rounded=0;whiteSpace=wrap;html=1;strokeColor=#006EAF;fontColor=#ffffff;fillColor=none;" parent="_g4DaSGvke30XTqqvjTM-1" vertex="1">
                    <mxGeometry x="52.5" y="1440" width="50" height="60" as="geometry"/>
                </mxCell>
                <mxCell id="4f4ZlgQCkmpkjtm2Scpx-50" value="sample from sequence&lt;br&gt;[Time sample]" style="text;html=1;strokeColor=none;fillColor=none;align=center;verticalAlign=middle;whiteSpace=wrap;rounded=0;" parent="_g4DaSGvke30XTqqvjTM-1" vertex="1">
                    <mxGeometry x="-28.5" y="1295" width="137" height="20" as="geometry"/>
                </mxCell>
                <mxCell id="4f4ZlgQCkmpkjtm2Scpx-51" value="" style="shape=curlyBracket;whiteSpace=wrap;html=1;rounded=1;fillColor=none;rotation=90;size=0.5;" parent="_g4DaSGvke30XTqqvjTM-1" vertex="1">
                    <mxGeometry x="40" y="1405" width="20" height="50" as="geometry"/>
                </mxCell>
                <mxCell id="4f4ZlgQCkmpkjtm2Scpx-55" value="" style="shape=flexArrow;endArrow=classic;html=1;" parent="_g4DaSGvke30XTqqvjTM-1" edge="1">
                    <mxGeometry width="50" height="50" relative="1" as="geometry">
                        <mxPoint x="240" y="1434.17" as="sourcePoint"/>
                        <mxPoint x="280" y="1434.17" as="targetPoint"/>
                    </mxGeometry>
                </mxCell>
                <mxCell id="4f4ZlgQCkmpkjtm2Scpx-56" value="&lt;font face=&quot;helvetica&quot;&gt;agent traj&lt;/font&gt;" style="text;whiteSpace=wrap;html=1;" parent="_g4DaSGvke30XTqqvjTM-1" vertex="1">
                    <mxGeometry x="340" y="1310" width="70" height="30" as="geometry"/>
                </mxCell>
                <mxCell id="4f4ZlgQCkmpkjtm2Scpx-57" value="" style="endArrow=none;dashed=1;html=1;" parent="_g4DaSGvke30XTqqvjTM-1" edge="1">
                    <mxGeometry width="50" height="50" relative="1" as="geometry">
                        <mxPoint x="395" y="1325" as="sourcePoint"/>
                        <mxPoint x="460" y="1325" as="targetPoint"/>
                    </mxGeometry>
                </mxCell>
                <mxCell id="4f4ZlgQCkmpkjtm2Scpx-59" value="&lt;meta charset=&quot;utf-8&quot;&gt;&lt;span style=&quot;color: rgb(240, 240, 240); font-family: helvetica; font-size: 12px; font-style: normal; font-weight: 400; letter-spacing: normal; text-align: center; text-indent: 0px; text-transform: none; word-spacing: 0px; background-color: rgb(42, 42, 42); display: inline; float: none;&quot;&gt;obser+predict&lt;/span&gt;" style="text;whiteSpace=wrap;html=1;" parent="_g4DaSGvke30XTqqvjTM-1" vertex="1">
                    <mxGeometry x="25" y="1405" width="100" height="30" as="geometry"/>
                </mxCell>
                <mxCell id="4f4ZlgQCkmpkjtm2Scpx-60" value="&lt;meta charset=&quot;utf-8&quot;&gt;interval=5&lt;br&gt;&lt;br&gt;&lt;pre style=&quot;line-height: 0px&quot;&gt;&lt;br style=&quot;color: rgb(240, 240, 240); font-family: monospace; font-size: 12px; font-style: normal; font-weight: 400; letter-spacing: normal; text-align: center; text-indent: 0px; text-transform: none; word-spacing: 0px; background-color: rgb(42, 42, 42);&quot;&gt;&lt;/pre&gt;" style="text;whiteSpace=wrap;html=1;" parent="_g4DaSGvke30XTqqvjTM-1" vertex="1">
                    <mxGeometry x="22.5" y="1520" width="80" height="30" as="geometry"/>
                </mxCell>
                <mxCell id="4f4ZlgQCkmpkjtm2Scpx-61" value="" style="shape=curlyBracket;whiteSpace=wrap;html=1;rounded=1;flipH=1;fillColor=none;rotation=89;size=0.5;" parent="_g4DaSGvke30XTqqvjTM-1" vertex="1">
                    <mxGeometry x="27.5" y="1495.09" width="20" height="30" as="geometry"/>
                </mxCell>
                <mxCell id="4f4ZlgQCkmpkjtm2Scpx-62" value="&lt;span style=&quot;color: rgb(240 , 240 , 240) ; font-family: &amp;#34;helvetica&amp;#34; ; font-size: 12px ; font-style: normal ; font-weight: 400 ; letter-spacing: normal ; text-align: center ; text-indent: 0px ; text-transform: none ; word-spacing: 0px ; background-color: rgb(42 , 42 , 42) ; display: inline ; float: none&quot;&gt;obser&lt;/span&gt;" style="text;whiteSpace=wrap;html=1;" parent="_g4DaSGvke30XTqqvjTM-1" vertex="1">
                    <mxGeometry x="390" y="1270" width="40" height="30" as="geometry"/>
                </mxCell>
                <mxCell id="4f4ZlgQCkmpkjtm2Scpx-63" value="" style="shape=curlyBracket;whiteSpace=wrap;html=1;rounded=1;flipH=1;fillColor=none;rotation=-90;size=0.5;" parent="_g4DaSGvke30XTqqvjTM-1" vertex="1">
                    <mxGeometry x="400" y="1290" width="20" height="30" as="geometry"/>
                </mxCell>
                <mxCell id="4f4ZlgQCkmpkjtm2Scpx-64" value="&lt;meta charset=&quot;utf-8&quot;&gt;&lt;span style=&quot;color: rgb(240, 240, 240); font-family: helvetica; font-size: 12px; font-style: normal; font-weight: 400; letter-spacing: normal; text-align: center; text-indent: 0px; text-transform: none; word-spacing: 0px; background-color: rgb(42, 42, 42); display: inline; float: none;&quot;&gt;predict&lt;/span&gt;" style="text;whiteSpace=wrap;html=1;" parent="_g4DaSGvke30XTqqvjTM-1" vertex="1">
                    <mxGeometry x="432.5" y="1270" width="47.5" height="30" as="geometry"/>
                </mxCell>
                <mxCell id="4f4ZlgQCkmpkjtm2Scpx-65" value="" style="shape=curlyBracket;whiteSpace=wrap;html=1;rounded=1;flipH=1;fillColor=none;rotation=-90;size=0.5;" parent="_g4DaSGvke30XTqqvjTM-1" vertex="1">
                    <mxGeometry x="432.5" y="1292.5" width="20" height="25" as="geometry"/>
                </mxCell>
                <mxCell id="4f4ZlgQCkmpkjtm2Scpx-66" value="" style="endArrow=none;dashed=1;html=1;" parent="_g4DaSGvke30XTqqvjTM-1" edge="1">
                    <mxGeometry width="50" height="50" relative="1" as="geometry">
                        <mxPoint x="395" y="1340" as="sourcePoint"/>
                        <mxPoint x="430" y="1340" as="targetPoint"/>
                    </mxGeometry>
                </mxCell>
                <mxCell id="4f4ZlgQCkmpkjtm2Scpx-67" value="" style="endArrow=none;dashed=1;html=1;" parent="_g4DaSGvke30XTqqvjTM-1" edge="1">
                    <mxGeometry width="50" height="50" relative="1" as="geometry">
                        <mxPoint x="397" y="1350" as="sourcePoint"/>
                        <mxPoint x="432" y="1350" as="targetPoint"/>
                    </mxGeometry>
                </mxCell>
                <mxCell id="4f4ZlgQCkmpkjtm2Scpx-68" value="" style="endArrow=none;dashed=1;html=1;" parent="_g4DaSGvke30XTqqvjTM-1" edge="1">
                    <mxGeometry width="50" height="50" relative="1" as="geometry">
                        <mxPoint x="396" y="1360" as="sourcePoint"/>
                        <mxPoint x="431" y="1360" as="targetPoint"/>
                    </mxGeometry>
                </mxCell>
                <mxCell id="4f4ZlgQCkmpkjtm2Scpx-69" value="&lt;meta charset=&quot;utf-8&quot;&gt;&lt;span style=&quot;color: rgb(240, 240, 240); font-family: helvetica; font-size: 12px; font-style: normal; font-weight: 400; letter-spacing: normal; text-align: left; text-indent: 0px; text-transform: none; word-spacing: 0px; background-color: rgb(42, 42, 42); display: inline; float: none;&quot;&gt;obs trraj&lt;/span&gt;" style="text;whiteSpace=wrap;html=1;" parent="_g4DaSGvke30XTqqvjTM-1" vertex="1">
                    <mxGeometry x="340" y="1335" width="70" height="30" as="geometry"/>
                </mxCell>
                <mxCell id="4f4ZlgQCkmpkjtm2Scpx-71" value="" style="endArrow=classic;html=1;" parent="_g4DaSGvke30XTqqvjTM-1" edge="1">
                    <mxGeometry width="50" height="50" relative="1" as="geometry">
                        <mxPoint x="427" y="1200" as="sourcePoint"/>
                        <mxPoint x="427" y="1320" as="targetPoint"/>
                    </mxGeometry>
                </mxCell>
                <mxCell id="4f4ZlgQCkmpkjtm2Scpx-72" value="&lt;meta charset=&quot;utf-8&quot;&gt;&lt;div style=&quot;color: rgb(212, 212, 212); background-color: rgb(30, 30, 30); font-family: &amp;quot;droid sans mono&amp;quot;, monospace, monospace, &amp;quot;droid sans fallback&amp;quot;; font-weight: normal; font-size: 14px; line-height: 19px;&quot;&gt;&lt;div&gt;&lt;span style=&quot;color: #d4d4d4&quot;&gt;agent_pos&lt;/span&gt;&lt;/div&gt;&lt;/div&gt;" style="text;whiteSpace=wrap;html=1;" parent="_g4DaSGvke30XTqqvjTM-1" vertex="1">
                    <mxGeometry x="390" y="1170" width="100" height="30" as="geometry"/>
                </mxCell>
                <mxCell id="4f4ZlgQCkmpkjtm2Scpx-73" value="lane_graph" style="text;whiteSpace=wrap;html=1;" parent="_g4DaSGvke30XTqqvjTM-1" vertex="1">
                    <mxGeometry x="330" y="1380" width="90" height="30" as="geometry"/>
                </mxCell>
                <mxCell id="4f4ZlgQCkmpkjtm2Scpx-74" value="" style="endArrow=none;dashed=1;html=1;" parent="_g4DaSGvke30XTqqvjTM-1" edge="1">
                    <mxGeometry width="50" height="50" relative="1" as="geometry">
                        <mxPoint x="400" y="1395.09" as="sourcePoint"/>
                        <mxPoint x="465" y="1395.09" as="targetPoint"/>
                    </mxGeometry>
                </mxCell>
                <mxCell id="4f4ZlgQCkmpkjtm2Scpx-76" value="&lt;div style=&quot;color: rgb(212 , 212 , 212) ; background-color: rgb(30 , 30 , 30) ; font-family: &amp;#34;droid sans mono&amp;#34; , monospace , monospace , &amp;#34;droid sans fallback&amp;#34; ; font-size: 14px ; line-height: 19px&quot;&gt;&lt;span style=&quot;color: #569cd6 ; font-weight: bold&quot;&gt;Scene filter&lt;/span&gt;&lt;/div&gt;" style="whiteSpace=wrap;html=1;rounded=1;fillColor=none;" parent="_g4DaSGvke30XTqqvjTM-1" vertex="1">
                    <mxGeometry x="720" y="1120" width="120" height="60" as="geometry"/>
                </mxCell>
                <mxCell id="4f4ZlgQCkmpkjtm2Scpx-77" value="" style="shape=curlyBracket;whiteSpace=wrap;html=1;rounded=1;fillColor=none;rotation=0;" parent="_g4DaSGvke30XTqqvjTM-1" vertex="1">
                    <mxGeometry x="285" y="1275" width="20" height="360" as="geometry"/>
                </mxCell>
                <mxCell id="4f4ZlgQCkmpkjtm2Scpx-80" value="sample" style="text;html=1;strokeColor=none;fillColor=none;align=center;verticalAlign=middle;whiteSpace=wrap;rounded=0;" parent="_g4DaSGvke30XTqqvjTM-1" vertex="1">
                    <mxGeometry x="318" y="1275" width="40" height="20" as="geometry"/>
                </mxCell>
                <mxCell id="4f4ZlgQCkmpkjtm2Scpx-81" value="sample" style="rounded=0;whiteSpace=wrap;html=1;fillColor=none;" parent="_g4DaSGvke30XTqqvjTM-1" vertex="1">
                    <mxGeometry x="720" y="1290" width="120" height="60" as="geometry"/>
                </mxCell>
                <mxCell id="4f4ZlgQCkmpkjtm2Scpx-82" value="Yes? or No" style="text;html=1;strokeColor=none;fillColor=none;align=center;verticalAlign=middle;whiteSpace=wrap;rounded=0;" parent="_g4DaSGvke30XTqqvjTM-1" vertex="1">
                    <mxGeometry x="860" y="1308" width="90" height="20" as="geometry"/>
                </mxCell>
                <mxCell id="4f4ZlgQCkmpkjtm2Scpx-83" value="sample" style="rounded=0;whiteSpace=wrap;html=1;fillColor=none;" parent="_g4DaSGvke30XTqqvjTM-1" vertex="1">
                    <mxGeometry x="720" y="1385" width="120" height="60" as="geometry"/>
                </mxCell>
                <mxCell id="4f4ZlgQCkmpkjtm2Scpx-84" value="Yes? or No" style="text;html=1;strokeColor=none;fillColor=none;align=center;verticalAlign=middle;whiteSpace=wrap;rounded=0;" parent="_g4DaSGvke30XTqqvjTM-1" vertex="1">
                    <mxGeometry x="860" y="1410" width="90" height="20" as="geometry"/>
                </mxCell>
                <mxCell id="4f4ZlgQCkmpkjtm2Scpx-85" value="&lt;font face=&quot;helvetica&quot;&gt;agent traj&lt;/font&gt;" style="text;whiteSpace=wrap;html=1;" parent="_g4DaSGvke30XTqqvjTM-1" vertex="1">
                    <mxGeometry x="340" y="1495" width="70" height="30" as="geometry"/>
                </mxCell>
                <mxCell id="4f4ZlgQCkmpkjtm2Scpx-86" value="" style="endArrow=none;dashed=1;html=1;" parent="_g4DaSGvke30XTqqvjTM-1" edge="1">
                    <mxGeometry width="50" height="50" relative="1" as="geometry">
                        <mxPoint x="395" y="1510" as="sourcePoint"/>
                        <mxPoint x="460" y="1510" as="targetPoint"/>
                    </mxGeometry>
                </mxCell>
                <mxCell id="4f4ZlgQCkmpkjtm2Scpx-87" value="&lt;span style=&quot;color: rgb(240 , 240 , 240) ; font-family: &amp;#34;helvetica&amp;#34; ; font-size: 12px ; font-style: normal ; font-weight: 400 ; letter-spacing: normal ; text-align: center ; text-indent: 0px ; text-transform: none ; word-spacing: 0px ; background-color: rgb(42 , 42 , 42) ; display: inline ; float: none&quot;&gt;obser&lt;/span&gt;" style="text;whiteSpace=wrap;html=1;" parent="_g4DaSGvke30XTqqvjTM-1" vertex="1">
                    <mxGeometry x="390" y="1455" width="40" height="30" as="geometry"/>
                </mxCell>
                <mxCell id="4f4ZlgQCkmpkjtm2Scpx-88" value="" style="shape=curlyBracket;whiteSpace=wrap;html=1;rounded=1;flipH=1;fillColor=none;rotation=-90;size=0.5;" parent="_g4DaSGvke30XTqqvjTM-1" vertex="1">
                    <mxGeometry x="400" y="1475" width="20" height="30" as="geometry"/>
                </mxCell>
                <mxCell id="4f4ZlgQCkmpkjtm2Scpx-89" value="&lt;meta charset=&quot;utf-8&quot;&gt;&lt;span style=&quot;color: rgb(240, 240, 240); font-family: helvetica; font-size: 12px; font-style: normal; font-weight: 400; letter-spacing: normal; text-align: center; text-indent: 0px; text-transform: none; word-spacing: 0px; background-color: rgb(42, 42, 42); display: inline; float: none;&quot;&gt;predict&lt;/span&gt;" style="text;whiteSpace=wrap;html=1;" parent="_g4DaSGvke30XTqqvjTM-1" vertex="1">
                    <mxGeometry x="432.5" y="1455" width="47.5" height="30" as="geometry"/>
                </mxCell>
                <mxCell id="4f4ZlgQCkmpkjtm2Scpx-90" value="" style="shape=curlyBracket;whiteSpace=wrap;html=1;rounded=1;flipH=1;fillColor=none;rotation=-90;size=0.5;" parent="_g4DaSGvke30XTqqvjTM-1" vertex="1">
                    <mxGeometry x="432.5" y="1477.5" width="20" height="25" as="geometry"/>
                </mxCell>
                <mxCell id="4f4ZlgQCkmpkjtm2Scpx-91" value="" style="endArrow=none;dashed=1;html=1;" parent="_g4DaSGvke30XTqqvjTM-1" edge="1">
                    <mxGeometry width="50" height="50" relative="1" as="geometry">
                        <mxPoint x="395" y="1525" as="sourcePoint"/>
                        <mxPoint x="430" y="1525" as="targetPoint"/>
                    </mxGeometry>
                </mxCell>
                <mxCell id="4f4ZlgQCkmpkjtm2Scpx-92" value="" style="endArrow=none;dashed=1;html=1;" parent="_g4DaSGvke30XTqqvjTM-1" edge="1">
                    <mxGeometry width="50" height="50" relative="1" as="geometry">
                        <mxPoint x="397" y="1535" as="sourcePoint"/>
                        <mxPoint x="432" y="1535" as="targetPoint"/>
                    </mxGeometry>
                </mxCell>
                <mxCell id="4f4ZlgQCkmpkjtm2Scpx-93" value="" style="endArrow=none;dashed=1;html=1;" parent="_g4DaSGvke30XTqqvjTM-1" edge="1">
                    <mxGeometry width="50" height="50" relative="1" as="geometry">
                        <mxPoint x="396" y="1545" as="sourcePoint"/>
                        <mxPoint x="431" y="1545" as="targetPoint"/>
                    </mxGeometry>
                </mxCell>
                <mxCell id="4f4ZlgQCkmpkjtm2Scpx-94" value="&lt;meta charset=&quot;utf-8&quot;&gt;&lt;span style=&quot;color: rgb(240, 240, 240); font-family: helvetica; font-size: 12px; font-style: normal; font-weight: 400; letter-spacing: normal; text-align: left; text-indent: 0px; text-transform: none; word-spacing: 0px; background-color: rgb(42, 42, 42); display: inline; float: none;&quot;&gt;obs trraj&lt;/span&gt;" style="text;whiteSpace=wrap;html=1;" parent="_g4DaSGvke30XTqqvjTM-1" vertex="1">
                    <mxGeometry x="340" y="1520" width="70" height="30" as="geometry"/>
                </mxCell>
                <mxCell id="4f4ZlgQCkmpkjtm2Scpx-95" value="lane_graph" style="text;whiteSpace=wrap;html=1;" parent="_g4DaSGvke30XTqqvjTM-1" vertex="1">
                    <mxGeometry x="330" y="1565" width="90" height="30" as="geometry"/>
                </mxCell>
                <mxCell id="4f4ZlgQCkmpkjtm2Scpx-96" value="" style="endArrow=none;dashed=1;html=1;" parent="_g4DaSGvke30XTqqvjTM-1" edge="1">
                    <mxGeometry width="50" height="50" relative="1" as="geometry">
                        <mxPoint x="400" y="1580.09" as="sourcePoint"/>
                        <mxPoint x="465" y="1580.09" as="targetPoint"/>
                    </mxGeometry>
                </mxCell>
                <mxCell id="4f4ZlgQCkmpkjtm2Scpx-98" value="sample" style="text;html=1;strokeColor=none;fillColor=none;align=center;verticalAlign=middle;whiteSpace=wrap;rounded=0;" parent="_g4DaSGvke30XTqqvjTM-1" vertex="1">
                    <mxGeometry x="318" y="1460" width="40" height="20" as="geometry"/>
                </mxCell>
                <mxCell id="4f4ZlgQCkmpkjtm2Scpx-99" value="&lt;meta charset=&quot;utf-8&quot;&gt;&lt;span style=&quot;color: rgb(240, 240, 240); font-family: helvetica; font-size: 12px; font-style: normal; font-weight: 400; letter-spacing: normal; text-align: left; text-indent: 0px; text-transform: none; word-spacing: 0px; background-color: rgb(42, 42, 42); display: inline; float: none;&quot;&gt;trajectories&lt;/span&gt;" style="text;whiteSpace=wrap;html=1;" parent="_g4DaSGvke30XTqqvjTM-1" vertex="1">
                    <mxGeometry x="-60" y="1410" width="80" height="30" as="geometry"/>
                </mxCell>
                <mxCell id="4f4ZlgQCkmpkjtm2Scpx-100" value="&lt;br&gt;sequence:&amp;nbsp;&lt;br&gt;- id&lt;br&gt;- SequenceData: &lt;br&gt;&amp;nbsp; - trajectories: 0 is agent, ref time line" style="text;html=1;strokeColor=none;fillColor=none;align=left;verticalAlign=middle;whiteSpace=wrap;rounded=0;" parent="_g4DaSGvke30XTqqvjTM-1" vertex="1">
                    <mxGeometry x="-60" y="1340" width="210" height="60" as="geometry"/>
                </mxCell>
                <mxCell id="4f4ZlgQCkmpkjtm2Scpx-102" value="sample from each traj&lt;br&gt;[Space sample]" style="text;html=1;strokeColor=none;fillColor=none;align=center;verticalAlign=middle;whiteSpace=wrap;rounded=0;" parent="_g4DaSGvke30XTqqvjTM-1" vertex="1">
                    <mxGeometry x="-893.5" y="1585" width="137" height="20" as="geometry"/>
                </mxCell>
                <mxCell id="4f4ZlgQCkmpkjtm2Scpx-103" value="" style="shape=flexArrow;endArrow=classic;html=1;" parent="_g4DaSGvke30XTqqvjTM-1" edge="1">
                    <mxGeometry width="50" height="50" relative="1" as="geometry">
                        <mxPoint x="-610" y="1745" as="sourcePoint"/>
                        <mxPoint x="-570" y="1745" as="targetPoint"/>
                    </mxGeometry>
                </mxCell>
                <mxCell id="4f4ZlgQCkmpkjtm2Scpx-105" value="..." style="text;html=1;strokeColor=none;fillColor=none;align=center;verticalAlign=middle;whiteSpace=wrap;rounded=0;" parent="_g4DaSGvke30XTqqvjTM-1" vertex="1">
                    <mxGeometry x="420" y="1620" width="40" height="20" as="geometry"/>
                </mxCell>
                <mxCell id="PiETIaJRAuitDgAzSrPA-3" value="" style="rounded=0;whiteSpace=wrap;html=1;strokeColor=#2D7600;fontColor=#ffffff;fillColor=none;" parent="_g4DaSGvke30XTqqvjTM-1" vertex="1">
                    <mxGeometry x="-650" y="1635" width="120" height="60" as="geometry"/>
                </mxCell>
                <mxCell id="PiETIaJRAuitDgAzSrPA-4" value="" style="endArrow=none;dashed=1;html=1;" parent="_g4DaSGvke30XTqqvjTM-1" edge="1">
                    <mxGeometry width="50" height="50" relative="1" as="geometry">
                        <mxPoint x="-650" y="1679.5" as="sourcePoint"/>
                        <mxPoint x="-560" y="1679.5" as="targetPoint"/>
                    </mxGeometry>
                </mxCell>
                <mxCell id="PiETIaJRAuitDgAzSrPA-5" value="" style="endArrow=none;dashed=1;html=1;fillColor=#ffe6cc;strokeColor=#d79b00;" parent="_g4DaSGvke30XTqqvjTM-1" edge="1">
                    <mxGeometry width="50" height="50" relative="1" as="geometry">
                        <mxPoint x="-650" y="1645" as="sourcePoint"/>
                        <mxPoint x="-560" y="1645" as="targetPoint"/>
                    </mxGeometry>
                </mxCell>
                <mxCell id="PiETIaJRAuitDgAzSrPA-6" value="" style="endArrow=none;dashed=1;html=1;" parent="_g4DaSGvke30XTqqvjTM-1" edge="1">
                    <mxGeometry width="50" height="50" relative="1" as="geometry">
                        <mxPoint x="-640" y="1655" as="sourcePoint"/>
                        <mxPoint x="-550" y="1655" as="targetPoint"/>
                    </mxGeometry>
                </mxCell>
                <mxCell id="PiETIaJRAuitDgAzSrPA-7" value="" style="endArrow=none;dashed=1;html=1;" parent="_g4DaSGvke30XTqqvjTM-1" edge="1">
                    <mxGeometry width="50" height="50" relative="1" as="geometry">
                        <mxPoint x="-660" y="1665" as="sourcePoint"/>
                        <mxPoint x="-570" y="1665" as="targetPoint"/>
                    </mxGeometry>
                </mxCell>
                <mxCell id="PiETIaJRAuitDgAzSrPA-8" value="" style="rounded=0;whiteSpace=wrap;html=1;strokeColor=#2D7600;fontColor=#ffffff;fillColor=none;" parent="_g4DaSGvke30XTqqvjTM-1" vertex="1">
                    <mxGeometry x="-640" y="1825" width="120" height="60" as="geometry"/>
                </mxCell>
                <mxCell id="PiETIaJRAuitDgAzSrPA-9" value="" style="endArrow=none;dashed=1;html=1;" parent="_g4DaSGvke30XTqqvjTM-1" edge="1">
                    <mxGeometry width="50" height="50" relative="1" as="geometry">
                        <mxPoint x="-645" y="1869.5" as="sourcePoint"/>
                        <mxPoint x="-555" y="1869.5" as="targetPoint"/>
                    </mxGeometry>
                </mxCell>
                <mxCell id="PiETIaJRAuitDgAzSrPA-10" value="" style="endArrow=none;dashed=1;html=1;" parent="_g4DaSGvke30XTqqvjTM-1" edge="1">
                    <mxGeometry width="50" height="50" relative="1" as="geometry">
                        <mxPoint x="-645" y="1835" as="sourcePoint"/>
                        <mxPoint x="-555" y="1835" as="targetPoint"/>
                    </mxGeometry>
                </mxCell>
                <mxCell id="PiETIaJRAuitDgAzSrPA-11" value="" style="endArrow=none;dashed=1;html=1;fillColor=#ffe6cc;strokeColor=#d79b00;" parent="_g4DaSGvke30XTqqvjTM-1" edge="1">
                    <mxGeometry width="50" height="50" relative="1" as="geometry">
                        <mxPoint x="-635" y="1845" as="sourcePoint"/>
                        <mxPoint x="-545" y="1845" as="targetPoint"/>
                    </mxGeometry>
                </mxCell>
                <mxCell id="PiETIaJRAuitDgAzSrPA-12" value="" style="endArrow=none;dashed=1;html=1;" parent="_g4DaSGvke30XTqqvjTM-1" edge="1">
                    <mxGeometry width="50" height="50" relative="1" as="geometry">
                        <mxPoint x="-655" y="1855" as="sourcePoint"/>
                        <mxPoint x="-565" y="1855" as="targetPoint"/>
                    </mxGeometry>
                </mxCell>
                <mxCell id="PiETIaJRAuitDgAzSrPA-13" value="time line offset ref to agent" style="text;html=1;strokeColor=none;fillColor=none;align=center;verticalAlign=middle;whiteSpace=wrap;rounded=0;" parent="_g4DaSGvke30XTqqvjTM-1" vertex="1">
                    <mxGeometry x="-220" y="1830" width="70" height="20" as="geometry"/>
                </mxCell>
                <mxCell id="78DqCwq07OOEjY0Ohr4Q-1" style="edgeStyle=orthogonalEdgeStyle;rounded=0;orthogonalLoop=1;jettySize=auto;html=1;" parent="_g4DaSGvke30XTqqvjTM-1" source="78DqCwq07OOEjY0Ohr4Q-0" target="78DqCwq07OOEjY0Ohr4Q-3" edge="1">
                    <mxGeometry relative="1" as="geometry">
                        <mxPoint x="950" y="265" as="targetPoint"/>
                    </mxGeometry>
                </mxCell>
                <mxCell id="78DqCwq07OOEjY0Ohr4Q-2" value="&lt;span style=&quot;color: rgb(78 , 201 , 176) ; font-family: &amp;#34;droid sans mono&amp;#34; , monospace , monospace , &amp;#34;droid sans fallback&amp;#34; ; font-size: 14px ; background-color: rgb(30 , 30 , 30)&quot;&gt;AgentClosure&lt;/span&gt;" style="edgeLabel;html=1;align=center;verticalAlign=middle;resizable=0;points=[];" parent="78DqCwq07OOEjY0Ohr4Q-1" vertex="1" connectable="0">
                    <mxGeometry x="0.2" y="2" relative="1" as="geometry">
                        <mxPoint x="-12" y="-13" as="offset"/>
                    </mxGeometry>
                </mxCell>
                <mxCell id="78DqCwq07OOEjY0Ohr4Q-0" value="&lt;div style=&quot;color: rgb(212 , 212 , 212) ; background-color: rgb(30 , 30 , 30) ; font-family: &amp;#34;droid sans mono&amp;#34; , monospace , monospace , &amp;#34;droid sans fallback&amp;#34; ; line-height: 19px ; font-size: 11px&quot;&gt;&lt;font style=&quot;font-size: 11px&quot;&gt;data transform&lt;/font&gt;&lt;/div&gt;&lt;div style=&quot;color: rgb(212 , 212 , 212) ; background-color: rgb(30 , 30 , 30) ; font-family: &amp;#34;droid sans mono&amp;#34; , monospace , monospace , &amp;#34;droid sans fallback&amp;#34; ; line-height: 19px ; font-size: 11px&quot;&gt;&lt;font style=&quot;font-size: 11px&quot;&gt;(bind to model)&lt;/font&gt;&lt;/div&gt;" style="rounded=1;whiteSpace=wrap;html=1;fillColor=none;" parent="_g4DaSGvke30XTqqvjTM-1" vertex="1">
                    <mxGeometry x="780" y="235" width="120" height="60" as="geometry"/>
                </mxCell>
                <mxCell id="78DqCwq07OOEjY0Ohr4Q-4" style="edgeStyle=orthogonalEdgeStyle;rounded=0;orthogonalLoop=1;jettySize=auto;html=1;" parent="_g4DaSGvke30XTqqvjTM-1" source="78DqCwq07OOEjY0Ohr4Q-3" edge="1">
                    <mxGeometry relative="1" as="geometry">
                        <mxPoint x="1250" y="265" as="targetPoint"/>
                    </mxGeometry>
                </mxCell>
                <mxCell id="78DqCwq07OOEjY0Ohr4Q-3" value="Model" style="rounded=1;whiteSpace=wrap;html=1;fillColor=none;" parent="_g4DaSGvke30XTqqvjTM-1" vertex="1">
                    <mxGeometry x="1020" y="235" width="120" height="60" as="geometry"/>
                </mxCell>
                <mxCell id="qmj0_fMUe-QXnXRRxb3Y-3" style="edgeStyle=orthogonalEdgeStyle;rounded=0;orthogonalLoop=1;jettySize=auto;html=1;entryX=0;entryY=0.5;entryDx=0;entryDy=0;" edge="1" parent="_g4DaSGvke30XTqqvjTM-1" source="qmj0_fMUe-QXnXRRxb3Y-0" target="qmj0_fMUe-QXnXRRxb3Y-2">
                    <mxGeometry relative="1" as="geometry"/>
                </mxCell>
                <mxCell id="qmj0_fMUe-QXnXRRxb3Y-0" value="&lt;div style=&quot;color: rgb(212 , 212 , 212) ; background-color: rgb(30 , 30 , 30) ; font-family: &amp;#34;droid sans mono&amp;#34; , monospace , monospace , &amp;#34;droid sans fallback&amp;#34; ; line-height: 19px ; font-size: 11px&quot;&gt;&lt;font style=&quot;font-size: 11px&quot;&gt;data transform&lt;/font&gt;&lt;/div&gt;&lt;div style=&quot;color: rgb(212 , 212 , 212) ; background-color: rgb(30 , 30 , 30) ; font-family: &amp;#34;droid sans mono&amp;#34; , monospace , monospace , &amp;#34;droid sans fallback&amp;#34; ; line-height: 19px ; font-size: 11px&quot;&gt;&lt;font style=&quot;font-size: 11px&quot;&gt;(bind to model)&lt;/font&gt;&lt;/div&gt;" style="rounded=1;whiteSpace=wrap;html=1;fillColor=none;" vertex="1" parent="_g4DaSGvke30XTqqvjTM-1">
                    <mxGeometry x="1900" y="1050" width="120" height="60" as="geometry"/>
                </mxCell>
                <mxCell id="qmj0_fMUe-QXnXRRxb3Y-4" style="edgeStyle=orthogonalEdgeStyle;rounded=0;orthogonalLoop=1;jettySize=auto;html=1;" edge="1" parent="_g4DaSGvke30XTqqvjTM-1" source="qmj0_fMUe-QXnXRRxb3Y-2">
                    <mxGeometry relative="1" as="geometry">
                        <mxPoint x="2370" y="1080" as="targetPoint"/>
                    </mxGeometry>
                </mxCell>
                <mxCell id="qmj0_fMUe-QXnXRRxb3Y-2" value="Model" style="rounded=1;whiteSpace=wrap;html=1;fillColor=none;" vertex="1" parent="_g4DaSGvke30XTqqvjTM-1">
                    <mxGeometry x="2150" y="1050" width="120" height="60" as="geometry"/>
                </mxCell>
                <mxCell id="qmj0_fMUe-QXnXRRxb3Y-5" style="edgeStyle=orthogonalEdgeStyle;rounded=0;orthogonalLoop=1;jettySize=auto;html=1;exitX=1;exitY=0.5;exitDx=0;exitDy=0;entryX=0;entryY=0.5;entryDx=0;entryDy=0;" edge="1" parent="_g4DaSGvke30XTqqvjTM-1" source="qmj0_fMUe-QXnXRRxb3Y-7" target="qmj0_fMUe-QXnXRRxb3Y-9">
                    <mxGeometry relative="1" as="geometry">
                        <mxPoint x="117.5" y="2290" as="targetPoint"/>
                    </mxGeometry>
                </mxCell>
                <mxCell id="qmj0_fMUe-QXnXRRxb3Y-6" value="agent_closure&lt;br&gt;batch" style="edgeLabel;html=1;align=center;verticalAlign=middle;resizable=0;points=[];" vertex="1" connectable="0" parent="qmj0_fMUe-QXnXRRxb3Y-5">
                    <mxGeometry x="0.2067" relative="1" as="geometry">
                        <mxPoint x="-10" as="offset"/>
                    </mxGeometry>
                </mxCell>
                <mxCell id="qmj0_fMUe-QXnXRRxb3Y-7" value="attention_predictor" style="rounded=1;whiteSpace=wrap;html=1;" vertex="1" parent="_g4DaSGvke30XTqqvjTM-1">
                    <mxGeometry x="-72.5" y="2210" width="110" height="160" as="geometry"/>
                </mxCell>
                <mxCell id="qmj0_fMUe-QXnXRRxb3Y-8" value="&lt;span style=&quot;color: rgb(0 , 0 , 0) ; font-family: &amp;#34;helvetica&amp;#34; ; font-size: 11px ; font-style: normal ; font-weight: 400 ; letter-spacing: normal ; text-align: center ; text-indent: 0px ; text-transform: none ; word-spacing: 0px ; background-color: rgb(255 , 255 , 255) ; display: inline ; float: none&quot;&gt;agent_closure&lt;br&gt;batch&lt;br&gt;&lt;/span&gt;" style="edgeStyle=orthogonalEdgeStyle;rounded=0;orthogonalLoop=1;jettySize=auto;html=1;exitX=1;exitY=0.5;exitDx=0;exitDy=0;entryX=0;entryY=0.5;entryDx=0;entryDy=0;" edge="1" parent="_g4DaSGvke30XTqqvjTM-1" source="qmj0_fMUe-QXnXRRxb3Y-9" target="qmj0_fMUe-QXnXRRxb3Y-10">
                    <mxGeometry relative="1" as="geometry">
                        <mxPoint x="437.5" y="2290" as="targetPoint"/>
                        <mxPoint as="offset"/>
                    </mxGeometry>
                </mxCell>
                <mxCell id="qmj0_fMUe-QXnXRRxb3Y-9" value="intention_predictor" style="rounded=1;whiteSpace=wrap;html=1;" vertex="1" parent="_g4DaSGvke30XTqqvjTM-1">
                    <mxGeometry x="137.5" y="2210" width="110" height="160" as="geometry"/>
                </mxCell>
                <mxCell id="qmj0_fMUe-QXnXRRxb3Y-34" style="edgeStyle=orthogonalEdgeStyle;rounded=0;orthogonalLoop=1;jettySize=auto;html=1;exitX=1;exitY=0.5;exitDx=0;exitDy=0;" edge="1" parent="_g4DaSGvke30XTqqvjTM-1" source="qmj0_fMUe-QXnXRRxb3Y-10">
                    <mxGeometry relative="1" as="geometry">
                        <mxPoint x="550" y="2290.2857142857147" as="targetPoint"/>
                    </mxGeometry>
                </mxCell>
                <mxCell id="qmj0_fMUe-QXnXRRxb3Y-10" value="traj_generator" style="rounded=1;whiteSpace=wrap;html=1;" vertex="1" parent="_g4DaSGvke30XTqqvjTM-1">
                    <mxGeometry x="347.5" y="2210" width="80" height="160" as="geometry"/>
                </mxCell>
                <mxCell id="qmj0_fMUe-QXnXRRxb3Y-11" value="" style="endArrow=classic;html=1;" edge="1" parent="_g4DaSGvke30XTqqvjTM-1">
                    <mxGeometry width="50" height="50" relative="1" as="geometry">
                        <mxPoint x="-1252" y="2240" as="sourcePoint"/>
                        <mxPoint x="-1162" y="2240" as="targetPoint"/>
                    </mxGeometry>
                </mxCell>
                <mxCell id="qmj0_fMUe-QXnXRRxb3Y-12" value="objects" style="edgeLabel;html=1;align=center;verticalAlign=middle;resizable=0;points=[];" vertex="1" connectable="0" parent="qmj0_fMUe-QXnXRRxb3Y-11">
                    <mxGeometry x="0.4917" y="-3" relative="1" as="geometry">
                        <mxPoint x="-36.67" y="-3" as="offset"/>
                    </mxGeometry>
                </mxCell>
                <mxCell id="qmj0_fMUe-QXnXRRxb3Y-13" value="" style="endArrow=classic;html=1;" edge="1" parent="_g4DaSGvke30XTqqvjTM-1">
                    <mxGeometry width="50" height="50" relative="1" as="geometry">
                        <mxPoint x="-1252" y="2340" as="sourcePoint"/>
                        <mxPoint x="-1162" y="2340" as="targetPoint"/>
                    </mxGeometry>
                </mxCell>
                <mxCell id="qmj0_fMUe-QXnXRRxb3Y-14" value="ego_car" style="edgeLabel;html=1;align=center;verticalAlign=middle;resizable=0;points=[];" vertex="1" connectable="0" parent="qmj0_fMUe-QXnXRRxb3Y-13">
                    <mxGeometry x="0.4917" y="-3" relative="1" as="geometry">
                        <mxPoint x="-25" y="-3" as="offset"/>
                    </mxGeometry>
                </mxCell>
                <mxCell id="qmj0_fMUe-QXnXRRxb3Y-15" style="edgeStyle=orthogonalEdgeStyle;rounded=0;orthogonalLoop=1;jettySize=auto;html=1;exitX=1;exitY=0.5;exitDx=0;exitDy=0;" edge="1" parent="_g4DaSGvke30XTqqvjTM-1" source="qmj0_fMUe-QXnXRRxb3Y-19">
                    <mxGeometry relative="1" as="geometry">
                        <mxPoint x="-830" y="2290" as="targetPoint"/>
                    </mxGeometry>
                </mxCell>
                <mxCell id="qmj0_fMUe-QXnXRRxb3Y-16" value="actors&lt;br&gt;batch" style="edgeLabel;html=1;align=center;verticalAlign=middle;resizable=0;points=[];" vertex="1" connectable="0" parent="qmj0_fMUe-QXnXRRxb3Y-15">
                    <mxGeometry x="-0.2717" y="-2" relative="1" as="geometry">
                        <mxPoint x="7.5" y="-2" as="offset"/>
                    </mxGeometry>
                </mxCell>
                <mxCell id="qmj0_fMUe-QXnXRRxb3Y-17" style="edgeStyle=orthogonalEdgeStyle;rounded=0;orthogonalLoop=1;jettySize=auto;html=1;exitX=0.5;exitY=1;exitDx=0;exitDy=0;" edge="1" parent="_g4DaSGvke30XTqqvjTM-1" source="qmj0_fMUe-QXnXRRxb3Y-19">
                    <mxGeometry relative="1" as="geometry">
                        <mxPoint x="-1117" y="2500" as="targetPoint"/>
                        <Array as="points">
                            <mxPoint x="-1117" y="2410"/>
                            <mxPoint x="-1117" y="2410"/>
                        </Array>
                    </mxGeometry>
                </mxCell>
                <mxCell id="qmj0_fMUe-QXnXRRxb3Y-18" value="objects" style="edgeLabel;html=1;align=center;verticalAlign=middle;resizable=0;points=[];" vertex="1" connectable="0" parent="qmj0_fMUe-QXnXRRxb3Y-17">
                    <mxGeometry x="-0.2563" relative="1" as="geometry">
                        <mxPoint x="-0.03" y="25.720000000000002" as="offset"/>
                    </mxGeometry>
                </mxCell>
                <mxCell id="qmj0_fMUe-QXnXRRxb3Y-19" value="actor_manager" style="rounded=1;whiteSpace=wrap;html=1;" vertex="1" parent="_g4DaSGvke30XTqqvjTM-1">
                    <mxGeometry x="-1162" y="2210" width="90" height="160" as="geometry"/>
                </mxCell>
                <mxCell id="qmj0_fMUe-QXnXRRxb3Y-20" style="edgeStyle=orthogonalEdgeStyle;rounded=0;orthogonalLoop=1;jettySize=auto;html=1;exitX=1;exitY=0.5;exitDx=0;exitDy=0;" edge="1" parent="_g4DaSGvke30XTqqvjTM-1" source="qmj0_fMUe-QXnXRRxb3Y-23" target="qmj0_fMUe-QXnXRRxb3Y-7">
                    <mxGeometry relative="1" as="geometry">
                        <mxPoint x="-640" y="2290" as="targetPoint"/>
                    </mxGeometry>
                </mxCell>
                <mxCell id="qmj0_fMUe-QXnXRRxb3Y-21" value="agent_closure&lt;br&gt;batch" style="edgeLabel;html=1;align=center;verticalAlign=middle;resizable=0;points=[];" vertex="1" connectable="0" parent="qmj0_fMUe-QXnXRRxb3Y-20">
                    <mxGeometry x="0.2599" y="-3" relative="1" as="geometry">
                        <mxPoint x="-16.669999999999998" y="-3" as="offset"/>
                    </mxGeometry>
                </mxCell>
                <mxCell id="qmj0_fMUe-QXnXRRxb3Y-22" style="edgeStyle=orthogonalEdgeStyle;rounded=0;orthogonalLoop=1;jettySize=auto;html=1;exitX=1;exitY=0.75;exitDx=0;exitDy=0;entryX=-0.002;entryY=0.633;entryDx=0;entryDy=0;entryPerimeter=0;" edge="1" parent="_g4DaSGvke30XTqqvjTM-1" target="qmj0_fMUe-QXnXRRxb3Y-33">
                    <mxGeometry relative="1" as="geometry">
                        <mxPoint x="-740" y="2310" as="sourcePoint"/>
                        <Array as="points">
                            <mxPoint x="-100" y="2310"/>
                            <mxPoint x="-100" y="2518"/>
                        </Array>
                    </mxGeometry>
                </mxCell>
                <mxCell id="qmj0_fMUe-QXnXRRxb3Y-23" value="pre_processor" style="rounded=1;whiteSpace=wrap;html=1;" vertex="1" parent="_g4DaSGvke30XTqqvjTM-1">
                    <mxGeometry x="-830" y="2210" width="90" height="160" as="geometry"/>
                </mxCell>
                <mxCell id="qmj0_fMUe-QXnXRRxb3Y-24" value="1. aggregate history information&lt;br&gt;2. object born and die" style="text;html=1;strokeColor=none;fillColor=none;align=left;verticalAlign=middle;whiteSpace=wrap;rounded=0;" vertex="1" parent="_g4DaSGvke30XTqqvjTM-1">
                    <mxGeometry x="-1342" y="2255" width="150" height="70" as="geometry"/>
                </mxCell>
                <mxCell id="qmj0_fMUe-QXnXRRxb3Y-25" value="1. generate agent closure.&lt;br&gt;2. closure contains all the information for predicting an agent" style="text;html=1;strokeColor=none;fillColor=none;align=left;verticalAlign=middle;whiteSpace=wrap;rounded=0;" vertex="1" parent="_g4DaSGvke30XTqqvjTM-1">
                    <mxGeometry x="-840" y="2380" width="140" height="110" as="geometry"/>
                </mxCell>
                <mxCell id="qmj0_fMUe-QXnXRRxb3Y-26" value="predicts the attention of a batch of agent closures" style="text;html=1;strokeColor=none;fillColor=none;align=left;verticalAlign=middle;whiteSpace=wrap;rounded=0;" vertex="1" parent="_g4DaSGvke30XTqqvjTM-1">
                    <mxGeometry x="-85" y="2390" width="135" height="54" as="geometry"/>
                </mxCell>
                <mxCell id="qmj0_fMUe-QXnXRRxb3Y-27" value="predicts the intention of a batch of agent closures" style="text;html=1;strokeColor=none;fillColor=none;align=left;verticalAlign=middle;whiteSpace=wrap;rounded=0;" vertex="1" parent="_g4DaSGvke30XTqqvjTM-1">
                    <mxGeometry x="125" y="2390" width="135" height="54" as="geometry"/>
                </mxCell>
                <mxCell id="qmj0_fMUe-QXnXRRxb3Y-28" value="generate the trajectories&amp;nbsp; of a batch of agent closures" style="text;html=1;strokeColor=none;fillColor=none;align=left;verticalAlign=middle;whiteSpace=wrap;rounded=0;" vertex="1" parent="_g4DaSGvke30XTqqvjTM-1">
                    <mxGeometry x="340" y="2390" width="135" height="54" as="geometry"/>
                </mxCell>
                <mxCell id="qmj0_fMUe-QXnXRRxb3Y-29" value="map client" style="rounded=1;whiteSpace=wrap;html=1;align=center;" vertex="1" parent="_g4DaSGvke30XTqqvjTM-1">
                    <mxGeometry x="-815" y="2225" width="60" height="30" as="geometry"/>
                </mxCell>
                <mxCell id="qmj0_fMUe-QXnXRRxb3Y-30" style="edgeStyle=orthogonalEdgeStyle;rounded=0;orthogonalLoop=1;jettySize=auto;html=1;entryX=0.5;entryY=0;entryDx=0;entryDy=0;" edge="1" parent="_g4DaSGvke30XTqqvjTM-1" target="qmj0_fMUe-QXnXRRxb3Y-29">
                    <mxGeometry relative="1" as="geometry">
                        <mxPoint x="-1250" y="2190" as="sourcePoint"/>
                        <Array as="points">
                            <mxPoint x="-785" y="2190"/>
                        </Array>
                    </mxGeometry>
                </mxCell>
                <mxCell id="qmj0_fMUe-QXnXRRxb3Y-31" value="traffic_signal" style="edgeLabel;html=1;align=center;verticalAlign=middle;resizable=0;points=[];" vertex="1" connectable="0" parent="qmj0_fMUe-QXnXRRxb3Y-30">
                    <mxGeometry x="-0.6658" relative="1" as="geometry">
                        <mxPoint x="-43" as="offset"/>
                    </mxGeometry>
                </mxCell>
                <mxCell id="qmj0_fMUe-QXnXRRxb3Y-35" style="edgeStyle=orthogonalEdgeStyle;rounded=0;orthogonalLoop=1;jettySize=auto;html=1;" edge="1" parent="_g4DaSGvke30XTqqvjTM-1" source="qmj0_fMUe-QXnXRRxb3Y-33">
                    <mxGeometry relative="1" as="geometry">
                        <mxPoint x="550" y="2290" as="targetPoint"/>
                    </mxGeometry>
                </mxCell>
                <mxCell id="qmj0_fMUe-QXnXRRxb3Y-33" value="merged_predictor" style="rounded=1;whiteSpace=wrap;html=1;" vertex="1" parent="_g4DaSGvke30XTqqvjTM-1">
                    <mxGeometry x="-55" y="2480" width="510" height="60" as="geometry"/>
                </mxCell>
                <mxCell id="qmj0_fMUe-QXnXRRxb3Y-43" value="&lt;font face=&quot;helvetica&quot;&gt;ego traj&lt;/font&gt;" style="text;whiteSpace=wrap;html=1;" vertex="1" parent="_g4DaSGvke30XTqqvjTM-1">
                    <mxGeometry x="-1056.5" y="2610" width="70" height="30" as="geometry"/>
                </mxCell>
                <mxCell id="qmj0_fMUe-QXnXRRxb3Y-44" value="" style="endArrow=none;dashed=1;html=1;" edge="1" parent="_g4DaSGvke30XTqqvjTM-1">
                    <mxGeometry width="50" height="50" relative="1" as="geometry">
                        <mxPoint x="-986.5" y="2620" as="sourcePoint"/>
                        <mxPoint x="-896.5" y="2620" as="targetPoint"/>
                    </mxGeometry>
                </mxCell>
                <mxCell id="qmj0_fMUe-QXnXRRxb3Y-45" value="&lt;span style=&quot;color: rgb(240 , 240 , 240) ; font-family: &amp;#34;helvetica&amp;#34; ; font-size: 12px ; font-style: normal ; font-weight: 400 ; letter-spacing: normal ; text-align: left ; text-indent: 0px ; text-transform: none ; word-spacing: 0px ; background-color: rgb(42 , 42 , 42) ; display: inline ; float: none&quot;&gt;obs traj&lt;/span&gt;" style="text;whiteSpace=wrap;html=1;" vertex="1" parent="_g4DaSGvke30XTqqvjTM-1">
                    <mxGeometry x="-1056.5" y="2640" width="90" height="30" as="geometry"/>
                </mxCell>
                <mxCell id="qmj0_fMUe-QXnXRRxb3Y-46" value="" style="endArrow=none;dashed=1;html=1;" edge="1" parent="_g4DaSGvke30XTqqvjTM-1">
                    <mxGeometry width="50" height="50" relative="1" as="geometry">
                        <mxPoint x="-976.5" y="2639.17" as="sourcePoint"/>
                        <mxPoint x="-886.5" y="2639.17" as="targetPoint"/>
                    </mxGeometry>
                </mxCell>
                <mxCell id="qmj0_fMUe-QXnXRRxb3Y-47" value="" style="endArrow=none;dashed=1;html=1;" edge="1" parent="_g4DaSGvke30XTqqvjTM-1">
                    <mxGeometry width="50" height="50" relative="1" as="geometry">
                        <mxPoint x="-981.5" y="2649.17" as="sourcePoint"/>
                        <mxPoint x="-891.5" y="2649.17" as="targetPoint"/>
                    </mxGeometry>
                </mxCell>
                <mxCell id="qmj0_fMUe-QXnXRRxb3Y-48" value="" style="endArrow=none;dashed=1;html=1;" edge="1" parent="_g4DaSGvke30XTqqvjTM-1">
                    <mxGeometry width="50" height="50" relative="1" as="geometry">
                        <mxPoint x="-986.5" y="2659.17" as="sourcePoint"/>
                        <mxPoint x="-896.5" y="2659.17" as="targetPoint"/>
                    </mxGeometry>
                </mxCell>
                <mxCell id="qmj0_fMUe-QXnXRRxb3Y-49" value="" style="shape=curlyBracket;whiteSpace=wrap;html=1;rounded=1;fillColor=none;" vertex="1" parent="_g4DaSGvke30XTqqvjTM-1">
                    <mxGeometry x="-1066.5" y="2620" width="10" height="40" as="geometry"/>
                </mxCell>
                <mxCell id="qmj0_fMUe-QXnXRRxb3Y-51" value="time sample" style="text;html=1;strokeColor=none;fillColor=none;align=center;verticalAlign=middle;whiteSpace=wrap;rounded=0;" vertex="1" parent="_g4DaSGvke30XTqqvjTM-1">
                    <mxGeometry x="-996.5" y="2540" width="90" height="20" as="geometry"/>
                </mxCell>
                <mxCell id="qmj0_fMUe-QXnXRRxb3Y-52" value="obser_horizon: 20" style="text;html=1;strokeColor=none;fillColor=none;align=center;verticalAlign=middle;whiteSpace=wrap;rounded=0;" vertex="1" parent="_g4DaSGvke30XTqqvjTM-1">
                    <mxGeometry x="-996.5" y="2590" width="110" height="20" as="geometry"/>
                </mxCell>
                <mxCell id="nF97DwH9zGk8c-TD3iw7-0" value="" style="rounded=0;whiteSpace=wrap;html=1;fillColor=none;" vertex="1" parent="_g4DaSGvke30XTqqvjTM-1">
                    <mxGeometry x="-707.75" y="2590" width="257" height="150" as="geometry"/>
                </mxCell>
                <mxCell id="nF97DwH9zGk8c-TD3iw7-1" value="&lt;font face=&quot;helvetica&quot;&gt;agent traj&lt;/font&gt;" style="text;whiteSpace=wrap;html=1;" vertex="1" parent="_g4DaSGvke30XTqqvjTM-1">
                    <mxGeometry x="-679.25" y="2630" width="70" height="30" as="geometry"/>
                </mxCell>
                <mxCell id="nF97DwH9zGk8c-TD3iw7-2" value="" style="endArrow=none;dashed=1;html=1;" edge="1" parent="_g4DaSGvke30XTqqvjTM-1">
                    <mxGeometry width="50" height="50" relative="1" as="geometry">
                        <mxPoint x="-624.2499999999995" y="2645" as="sourcePoint"/>
                        <mxPoint x="-559.2499999999995" y="2645" as="targetPoint"/>
                    </mxGeometry>
                </mxCell>
                <mxCell id="nF97DwH9zGk8c-TD3iw7-3" value="&lt;span style=&quot;color: rgb(240 , 240 , 240) ; font-family: &amp;#34;helvetica&amp;#34; ; font-size: 12px ; font-style: normal ; font-weight: 400 ; letter-spacing: normal ; text-align: center ; text-indent: 0px ; text-transform: none ; word-spacing: 0px ; background-color: rgb(42 , 42 , 42) ; display: inline ; float: none&quot;&gt;obser&lt;/span&gt;" style="text;whiteSpace=wrap;html=1;" vertex="1" parent="_g4DaSGvke30XTqqvjTM-1">
                    <mxGeometry x="-629.25" y="2590" width="40" height="30" as="geometry"/>
                </mxCell>
                <mxCell id="nF97DwH9zGk8c-TD3iw7-4" value="" style="shape=curlyBracket;whiteSpace=wrap;html=1;rounded=1;flipH=1;fillColor=none;rotation=-90;size=0.5;" vertex="1" parent="_g4DaSGvke30XTqqvjTM-1">
                    <mxGeometry x="-619.25" y="2610" width="20" height="30" as="geometry"/>
                </mxCell>
                <mxCell id="nF97DwH9zGk8c-TD3iw7-5" value="&lt;meta charset=&quot;utf-8&quot;&gt;&lt;span style=&quot;color: rgb(240, 240, 240); font-family: helvetica; font-size: 12px; font-style: normal; font-weight: 400; letter-spacing: normal; text-align: center; text-indent: 0px; text-transform: none; word-spacing: 0px; background-color: rgb(42, 42, 42); display: inline; float: none;&quot;&gt;predict&lt;/span&gt;" style="text;whiteSpace=wrap;html=1;" vertex="1" parent="_g4DaSGvke30XTqqvjTM-1">
                    <mxGeometry x="-586.75" y="2590" width="47.5" height="30" as="geometry"/>
                </mxCell>
                <mxCell id="nF97DwH9zGk8c-TD3iw7-6" value="" style="shape=curlyBracket;whiteSpace=wrap;html=1;rounded=1;flipH=1;fillColor=none;rotation=-90;size=0.5;" vertex="1" parent="_g4DaSGvke30XTqqvjTM-1">
                    <mxGeometry x="-586.75" y="2612.5" width="20" height="25" as="geometry"/>
                </mxCell>
                <mxCell id="nF97DwH9zGk8c-TD3iw7-7" value="" style="endArrow=none;dashed=1;html=1;" edge="1" parent="_g4DaSGvke30XTqqvjTM-1">
                    <mxGeometry width="50" height="50" relative="1" as="geometry">
                        <mxPoint x="-624.2499999999995" y="2660" as="sourcePoint"/>
                        <mxPoint x="-589.2499999999995" y="2660" as="targetPoint"/>
                    </mxGeometry>
                </mxCell>
                <mxCell id="nF97DwH9zGk8c-TD3iw7-8" value="" style="endArrow=none;dashed=1;html=1;" edge="1" parent="_g4DaSGvke30XTqqvjTM-1">
                    <mxGeometry width="50" height="50" relative="1" as="geometry">
                        <mxPoint x="-622.25" y="2670" as="sourcePoint"/>
                        <mxPoint x="-587.25" y="2670" as="targetPoint"/>
                    </mxGeometry>
                </mxCell>
                <mxCell id="nF97DwH9zGk8c-TD3iw7-9" value="" style="endArrow=none;dashed=1;html=1;" edge="1" parent="_g4DaSGvke30XTqqvjTM-1">
                    <mxGeometry width="50" height="50" relative="1" as="geometry">
                        <mxPoint x="-623.25" y="2680" as="sourcePoint"/>
                        <mxPoint x="-588.25" y="2680" as="targetPoint"/>
                    </mxGeometry>
                </mxCell>
                <mxCell id="nF97DwH9zGk8c-TD3iw7-10" value="&lt;meta charset=&quot;utf-8&quot;&gt;&lt;span style=&quot;color: rgb(240, 240, 240); font-family: helvetica; font-size: 12px; font-style: normal; font-weight: 400; letter-spacing: normal; text-align: left; text-indent: 0px; text-transform: none; word-spacing: 0px; background-color: rgb(42, 42, 42); display: inline; float: none;&quot;&gt;obs trraj&lt;/span&gt;" style="text;whiteSpace=wrap;html=1;" vertex="1" parent="_g4DaSGvke30XTqqvjTM-1">
                    <mxGeometry x="-679.25" y="2655" width="70" height="30" as="geometry"/>
                </mxCell>
                <mxCell id="nF97DwH9zGk8c-TD3iw7-11" value="lane_graph" style="text;whiteSpace=wrap;html=1;" vertex="1" parent="_g4DaSGvke30XTqqvjTM-1">
                    <mxGeometry x="-689.25" y="2700" width="90" height="30" as="geometry"/>
                </mxCell>
                <mxCell id="nF97DwH9zGk8c-TD3iw7-12" value="" style="endArrow=none;dashed=1;html=1;" edge="1" parent="_g4DaSGvke30XTqqvjTM-1">
                    <mxGeometry width="50" height="50" relative="1" as="geometry">
                        <mxPoint x="-619.2499999999995" y="2715.09" as="sourcePoint"/>
                        <mxPoint x="-554.2499999999995" y="2715.09" as="targetPoint"/>
                    </mxGeometry>
                </mxCell>
                <mxCell id="nF97DwH9zGk8c-TD3iw7-13" value="sample" style="text;html=1;strokeColor=none;fillColor=none;align=center;verticalAlign=middle;whiteSpace=wrap;rounded=0;" vertex="1" parent="_g4DaSGvke30XTqqvjTM-1">
                    <mxGeometry x="-701.25" y="2595" width="40" height="20" as="geometry"/>
                </mxCell>
                <mxCell id="nF97DwH9zGk8c-TD3iw7-14" value="..." style="text;html=1;strokeColor=none;fillColor=none;align=center;verticalAlign=middle;whiteSpace=wrap;rounded=0;" vertex="1" parent="_g4DaSGvke30XTqqvjTM-1">
                    <mxGeometry x="-606.75" y="2940" width="40" height="20" as="geometry"/>
                </mxCell>
                <mxCell id="nF97DwH9zGk8c-TD3iw7-17" value="" style="rounded=0;whiteSpace=wrap;html=1;fillColor=none;" vertex="1" parent="_g4DaSGvke30XTqqvjTM-1">
                    <mxGeometry x="-709.25" y="2775" width="257" height="150" as="geometry"/>
                </mxCell>
                <mxCell id="nF97DwH9zGk8c-TD3iw7-18" value="&lt;font face=&quot;helvetica&quot;&gt;agent traj&lt;/font&gt;" style="text;whiteSpace=wrap;html=1;" vertex="1" parent="_g4DaSGvke30XTqqvjTM-1">
                    <mxGeometry x="-680.75" y="2815" width="70" height="30" as="geometry"/>
                </mxCell>
                <mxCell id="nF97DwH9zGk8c-TD3iw7-19" value="" style="endArrow=none;dashed=1;html=1;" edge="1" parent="_g4DaSGvke30XTqqvjTM-1">
                    <mxGeometry width="50" height="50" relative="1" as="geometry">
                        <mxPoint x="-625.7499999999995" y="2830" as="sourcePoint"/>
                        <mxPoint x="-560.7499999999995" y="2830" as="targetPoint"/>
                    </mxGeometry>
                </mxCell>
                <mxCell id="nF97DwH9zGk8c-TD3iw7-20" value="&lt;span style=&quot;color: rgb(240 , 240 , 240) ; font-family: &amp;#34;helvetica&amp;#34; ; font-size: 12px ; font-style: normal ; font-weight: 400 ; letter-spacing: normal ; text-align: center ; text-indent: 0px ; text-transform: none ; word-spacing: 0px ; background-color: rgb(42 , 42 , 42) ; display: inline ; float: none&quot;&gt;obser&lt;/span&gt;" style="text;whiteSpace=wrap;html=1;" vertex="1" parent="_g4DaSGvke30XTqqvjTM-1">
                    <mxGeometry x="-630.75" y="2775" width="40" height="30" as="geometry"/>
                </mxCell>
                <mxCell id="nF97DwH9zGk8c-TD3iw7-21" value="" style="shape=curlyBracket;whiteSpace=wrap;html=1;rounded=1;flipH=1;fillColor=none;rotation=-90;size=0.5;" vertex="1" parent="_g4DaSGvke30XTqqvjTM-1">
                    <mxGeometry x="-620.75" y="2795" width="20" height="30" as="geometry"/>
                </mxCell>
                <mxCell id="nF97DwH9zGk8c-TD3iw7-22" value="&lt;meta charset=&quot;utf-8&quot;&gt;&lt;span style=&quot;color: rgb(240, 240, 240); font-family: helvetica; font-size: 12px; font-style: normal; font-weight: 400; letter-spacing: normal; text-align: center; text-indent: 0px; text-transform: none; word-spacing: 0px; background-color: rgb(42, 42, 42); display: inline; float: none;&quot;&gt;predict&lt;/span&gt;" style="text;whiteSpace=wrap;html=1;" vertex="1" parent="_g4DaSGvke30XTqqvjTM-1">
                    <mxGeometry x="-588.25" y="2775" width="47.5" height="30" as="geometry"/>
                </mxCell>
                <mxCell id="nF97DwH9zGk8c-TD3iw7-23" value="" style="shape=curlyBracket;whiteSpace=wrap;html=1;rounded=1;flipH=1;fillColor=none;rotation=-90;size=0.5;" vertex="1" parent="_g4DaSGvke30XTqqvjTM-1">
                    <mxGeometry x="-588.25" y="2797.5" width="20" height="25" as="geometry"/>
                </mxCell>
                <mxCell id="nF97DwH9zGk8c-TD3iw7-24" value="" style="endArrow=none;dashed=1;html=1;" edge="1" parent="_g4DaSGvke30XTqqvjTM-1">
                    <mxGeometry width="50" height="50" relative="1" as="geometry">
                        <mxPoint x="-625.7499999999995" y="2845" as="sourcePoint"/>
                        <mxPoint x="-590.7499999999995" y="2845" as="targetPoint"/>
                    </mxGeometry>
                </mxCell>
                <mxCell id="nF97DwH9zGk8c-TD3iw7-25" value="" style="endArrow=none;dashed=1;html=1;" edge="1" parent="_g4DaSGvke30XTqqvjTM-1">
                    <mxGeometry width="50" height="50" relative="1" as="geometry">
                        <mxPoint x="-623.75" y="2855" as="sourcePoint"/>
                        <mxPoint x="-588.75" y="2855" as="targetPoint"/>
                    </mxGeometry>
                </mxCell>
                <mxCell id="nF97DwH9zGk8c-TD3iw7-26" value="" style="endArrow=none;dashed=1;html=1;" edge="1" parent="_g4DaSGvke30XTqqvjTM-1">
                    <mxGeometry width="50" height="50" relative="1" as="geometry">
                        <mxPoint x="-624.75" y="2865" as="sourcePoint"/>
                        <mxPoint x="-589.75" y="2865" as="targetPoint"/>
                    </mxGeometry>
                </mxCell>
                <mxCell id="nF97DwH9zGk8c-TD3iw7-27" value="&lt;meta charset=&quot;utf-8&quot;&gt;&lt;span style=&quot;color: rgb(240, 240, 240); font-family: helvetica; font-size: 12px; font-style: normal; font-weight: 400; letter-spacing: normal; text-align: left; text-indent: 0px; text-transform: none; word-spacing: 0px; background-color: rgb(42, 42, 42); display: inline; float: none;&quot;&gt;obs trraj&lt;/span&gt;" style="text;whiteSpace=wrap;html=1;" vertex="1" parent="_g4DaSGvke30XTqqvjTM-1">
                    <mxGeometry x="-680.75" y="2840" width="70" height="30" as="geometry"/>
                </mxCell>
                <mxCell id="nF97DwH9zGk8c-TD3iw7-28" value="lane_graph" style="text;whiteSpace=wrap;html=1;" vertex="1" parent="_g4DaSGvke30XTqqvjTM-1">
                    <mxGeometry x="-690.75" y="2885" width="90" height="30" as="geometry"/>
                </mxCell>
                <mxCell id="nF97DwH9zGk8c-TD3iw7-29" value="" style="endArrow=none;dashed=1;html=1;" edge="1" parent="_g4DaSGvke30XTqqvjTM-1">
                    <mxGeometry width="50" height="50" relative="1" as="geometry">
                        <mxPoint x="-620.7499999999995" y="2900.09" as="sourcePoint"/>
                        <mxPoint x="-555.7499999999995" y="2900.09" as="targetPoint"/>
                    </mxGeometry>
                </mxCell>
                <mxCell id="nF97DwH9zGk8c-TD3iw7-30" value="sample" style="text;html=1;strokeColor=none;fillColor=none;align=center;verticalAlign=middle;whiteSpace=wrap;rounded=0;" vertex="1" parent="_g4DaSGvke30XTqqvjTM-1">
                    <mxGeometry x="-702.75" y="2780" width="40" height="20" as="geometry"/>
                </mxCell>
                <mxCell id="nF97DwH9zGk8c-TD3iw7-31" value="space sample" style="text;html=1;strokeColor=none;fillColor=none;align=center;verticalAlign=middle;whiteSpace=wrap;rounded=0;" vertex="1" parent="_g4DaSGvke30XTqqvjTM-1">
                    <mxGeometry x="-619.25" y="2550" width="90" height="20" as="geometry"/>
                </mxCell>
                <mxCell id="nF97DwH9zGk8c-TD3iw7-32" value="" style="shape=curlyBracket;whiteSpace=wrap;html=1;rounded=1;fillColor=none;rotation=0;" vertex="1" parent="_g4DaSGvke30XTqqvjTM-1">
                    <mxGeometry x="-740" y="2590" width="20" height="360" as="geometry"/>
                </mxCell>
                <mxCell id="nF97DwH9zGk8c-TD3iw7-33" value="&lt;div style=&quot;color: rgb(212 , 212 , 212) ; background-color: rgb(30 , 30 , 30) ; font-family: &amp;#34;droid sans mono&amp;#34; , monospace , monospace , &amp;#34;droid sans fallback&amp;#34; ; line-height: 19px ; font-size: 11px&quot;&gt;&lt;font style=&quot;font-size: 11px&quot;&gt;data transform&lt;/font&gt;&lt;/div&gt;&lt;div style=&quot;color: rgb(212 , 212 , 212) ; background-color: rgb(30 , 30 , 30) ; font-family: &amp;#34;droid sans mono&amp;#34; , monospace , monospace , &amp;#34;droid sans fallback&amp;#34; ; line-height: 19px ; font-size: 11px&quot;&gt;&lt;font style=&quot;font-size: 11px&quot;&gt;(bind to model)&lt;/font&gt;&lt;/div&gt;" style="rounded=1;whiteSpace=wrap;html=1;fillColor=none;" vertex="1" parent="_g4DaSGvke30XTqqvjTM-1">
                    <mxGeometry x="-380" y="2730" width="120" height="60" as="geometry"/>
                </mxCell>
                <mxCell id="nF97DwH9zGk8c-TD3iw7-34" value="" style="rounded=0;whiteSpace=wrap;html=1;fillColor=none;" vertex="1" parent="_g4DaSGvke30XTqqvjTM-1">
                    <mxGeometry x="-177.75" y="2590" width="257" height="150" as="geometry"/>
                </mxCell>
                <mxCell id="nF97DwH9zGk8c-TD3iw7-35" value="&lt;font face=&quot;helvetica&quot;&gt;agent traj&lt;/font&gt;" style="text;whiteSpace=wrap;html=1;" vertex="1" parent="_g4DaSGvke30XTqqvjTM-1">
                    <mxGeometry x="-149.25" y="2630" width="70" height="30" as="geometry"/>
                </mxCell>
                <mxCell id="nF97DwH9zGk8c-TD3iw7-36" value="" style="endArrow=none;dashed=1;html=1;" edge="1" parent="_g4DaSGvke30XTqqvjTM-1">
                    <mxGeometry width="50" height="50" relative="1" as="geometry">
                        <mxPoint x="-94.24999999999955" y="2645" as="sourcePoint"/>
                        <mxPoint x="-29.249999999999545" y="2645" as="targetPoint"/>
                    </mxGeometry>
                </mxCell>
                <mxCell id="nF97DwH9zGk8c-TD3iw7-37" value="&lt;span style=&quot;color: rgb(240 , 240 , 240) ; font-family: &amp;#34;helvetica&amp;#34; ; font-size: 12px ; font-style: normal ; font-weight: 400 ; letter-spacing: normal ; text-align: center ; text-indent: 0px ; text-transform: none ; word-spacing: 0px ; background-color: rgb(42 , 42 , 42) ; display: inline ; float: none&quot;&gt;obser&lt;/span&gt;" style="text;whiteSpace=wrap;html=1;" vertex="1" parent="_g4DaSGvke30XTqqvjTM-1">
                    <mxGeometry x="-99.25" y="2590" width="40" height="30" as="geometry"/>
                </mxCell>
                <mxCell id="nF97DwH9zGk8c-TD3iw7-38" value="" style="shape=curlyBracket;whiteSpace=wrap;html=1;rounded=1;flipH=1;fillColor=none;rotation=-90;size=0.5;" vertex="1" parent="_g4DaSGvke30XTqqvjTM-1">
                    <mxGeometry x="-89.25" y="2610" width="20" height="30" as="geometry"/>
                </mxCell>
                <mxCell id="nF97DwH9zGk8c-TD3iw7-39" value="&lt;meta charset=&quot;utf-8&quot;&gt;&lt;span style=&quot;color: rgb(240, 240, 240); font-family: helvetica; font-size: 12px; font-style: normal; font-weight: 400; letter-spacing: normal; text-align: center; text-indent: 0px; text-transform: none; word-spacing: 0px; background-color: rgb(42, 42, 42); display: inline; float: none;&quot;&gt;predict&lt;/span&gt;" style="text;whiteSpace=wrap;html=1;" vertex="1" parent="_g4DaSGvke30XTqqvjTM-1">
                    <mxGeometry x="-56.75" y="2590" width="47.5" height="30" as="geometry"/>
                </mxCell>
                <mxCell id="nF97DwH9zGk8c-TD3iw7-40" value="" style="shape=curlyBracket;whiteSpace=wrap;html=1;rounded=1;flipH=1;fillColor=none;rotation=-90;size=0.5;" vertex="1" parent="_g4DaSGvke30XTqqvjTM-1">
                    <mxGeometry x="-56.75" y="2612.5" width="20" height="25" as="geometry"/>
                </mxCell>
                <mxCell id="nF97DwH9zGk8c-TD3iw7-41" value="" style="endArrow=none;dashed=1;html=1;" edge="1" parent="_g4DaSGvke30XTqqvjTM-1">
                    <mxGeometry width="50" height="50" relative="1" as="geometry">
                        <mxPoint x="-94.24999999999955" y="2660" as="sourcePoint"/>
                        <mxPoint x="-59.249999999999545" y="2660" as="targetPoint"/>
                    </mxGeometry>
                </mxCell>
                <mxCell id="nF97DwH9zGk8c-TD3iw7-42" value="" style="endArrow=none;dashed=1;html=1;" edge="1" parent="_g4DaSGvke30XTqqvjTM-1">
                    <mxGeometry width="50" height="50" relative="1" as="geometry">
                        <mxPoint x="-92.25" y="2670" as="sourcePoint"/>
                        <mxPoint x="-57.25" y="2670" as="targetPoint"/>
                    </mxGeometry>
                </mxCell>
                <mxCell id="nF97DwH9zGk8c-TD3iw7-43" value="" style="endArrow=none;dashed=1;html=1;" edge="1" parent="_g4DaSGvke30XTqqvjTM-1">
                    <mxGeometry width="50" height="50" relative="1" as="geometry">
                        <mxPoint x="-93.25" y="2680" as="sourcePoint"/>
                        <mxPoint x="-58.25" y="2680" as="targetPoint"/>
                    </mxGeometry>
                </mxCell>
                <mxCell id="nF97DwH9zGk8c-TD3iw7-44" value="&lt;meta charset=&quot;utf-8&quot;&gt;&lt;span style=&quot;color: rgb(240, 240, 240); font-family: helvetica; font-size: 12px; font-style: normal; font-weight: 400; letter-spacing: normal; text-align: left; text-indent: 0px; text-transform: none; word-spacing: 0px; background-color: rgb(42, 42, 42); display: inline; float: none;&quot;&gt;obs trraj&lt;/span&gt;" style="text;whiteSpace=wrap;html=1;" vertex="1" parent="_g4DaSGvke30XTqqvjTM-1">
                    <mxGeometry x="-149.25" y="2655" width="70" height="30" as="geometry"/>
                </mxCell>
                <mxCell id="nF97DwH9zGk8c-TD3iw7-45" value="lane_graph" style="text;whiteSpace=wrap;html=1;" vertex="1" parent="_g4DaSGvke30XTqqvjTM-1">
                    <mxGeometry x="-159.25" y="2700" width="90" height="30" as="geometry"/>
                </mxCell>
                <mxCell id="nF97DwH9zGk8c-TD3iw7-46" value="" style="endArrow=none;dashed=1;html=1;" edge="1" parent="_g4DaSGvke30XTqqvjTM-1">
                    <mxGeometry width="50" height="50" relative="1" as="geometry">
                        <mxPoint x="-89.24999999999955" y="2715.09" as="sourcePoint"/>
                        <mxPoint x="-24.249999999999545" y="2715.09" as="targetPoint"/>
                    </mxGeometry>
                </mxCell>
                <mxCell id="nF97DwH9zGk8c-TD3iw7-47" value="sample" style="text;html=1;strokeColor=none;fillColor=none;align=center;verticalAlign=middle;whiteSpace=wrap;rounded=0;" vertex="1" parent="_g4DaSGvke30XTqqvjTM-1">
                    <mxGeometry x="-171.25" y="2595" width="40" height="20" as="geometry"/>
                </mxCell>
                <mxCell id="nF97DwH9zGk8c-TD3iw7-48" value="..." style="text;html=1;strokeColor=none;fillColor=none;align=center;verticalAlign=middle;whiteSpace=wrap;rounded=0;" vertex="1" parent="_g4DaSGvke30XTqqvjTM-1">
                    <mxGeometry x="-76.75" y="2940" width="40" height="20" as="geometry"/>
                </mxCell>
                <mxCell id="nF97DwH9zGk8c-TD3iw7-49" value="" style="rounded=0;whiteSpace=wrap;html=1;fillColor=none;" vertex="1" parent="_g4DaSGvke30XTqqvjTM-1">
                    <mxGeometry x="-179.25" y="2775" width="257" height="150" as="geometry"/>
                </mxCell>
                <mxCell id="nF97DwH9zGk8c-TD3iw7-50" value="&lt;font face=&quot;helvetica&quot;&gt;agent traj&lt;/font&gt;" style="text;whiteSpace=wrap;html=1;" vertex="1" parent="_g4DaSGvke30XTqqvjTM-1">
                    <mxGeometry x="-150.75" y="2815" width="70" height="30" as="geometry"/>
                </mxCell>
                <mxCell id="nF97DwH9zGk8c-TD3iw7-51" value="" style="endArrow=none;dashed=1;html=1;" edge="1" parent="_g4DaSGvke30XTqqvjTM-1">
                    <mxGeometry width="50" height="50" relative="1" as="geometry">
                        <mxPoint x="-95.74999999999955" y="2830" as="sourcePoint"/>
                        <mxPoint x="-30.749999999999545" y="2830" as="targetPoint"/>
                    </mxGeometry>
                </mxCell>
                <mxCell id="nF97DwH9zGk8c-TD3iw7-52" value="&lt;span style=&quot;color: rgb(240 , 240 , 240) ; font-family: &amp;#34;helvetica&amp;#34; ; font-size: 12px ; font-style: normal ; font-weight: 400 ; letter-spacing: normal ; text-align: center ; text-indent: 0px ; text-transform: none ; word-spacing: 0px ; background-color: rgb(42 , 42 , 42) ; display: inline ; float: none&quot;&gt;obser&lt;/span&gt;" style="text;whiteSpace=wrap;html=1;" vertex="1" parent="_g4DaSGvke30XTqqvjTM-1">
                    <mxGeometry x="-100.75" y="2775" width="40" height="30" as="geometry"/>
                </mxCell>
                <mxCell id="nF97DwH9zGk8c-TD3iw7-53" value="" style="shape=curlyBracket;whiteSpace=wrap;html=1;rounded=1;flipH=1;fillColor=none;rotation=-90;size=0.5;" vertex="1" parent="_g4DaSGvke30XTqqvjTM-1">
                    <mxGeometry x="-90.75" y="2795" width="20" height="30" as="geometry"/>
                </mxCell>
                <mxCell id="nF97DwH9zGk8c-TD3iw7-54" value="&lt;meta charset=&quot;utf-8&quot;&gt;&lt;span style=&quot;color: rgb(240, 240, 240); font-family: helvetica; font-size: 12px; font-style: normal; font-weight: 400; letter-spacing: normal; text-align: center; text-indent: 0px; text-transform: none; word-spacing: 0px; background-color: rgb(42, 42, 42); display: inline; float: none;&quot;&gt;predict&lt;/span&gt;" style="text;whiteSpace=wrap;html=1;" vertex="1" parent="_g4DaSGvke30XTqqvjTM-1">
                    <mxGeometry x="-58.25" y="2775" width="47.5" height="30" as="geometry"/>
                </mxCell>
                <mxCell id="nF97DwH9zGk8c-TD3iw7-55" value="" style="shape=curlyBracket;whiteSpace=wrap;html=1;rounded=1;flipH=1;fillColor=none;rotation=-90;size=0.5;" vertex="1" parent="_g4DaSGvke30XTqqvjTM-1">
                    <mxGeometry x="-58.25" y="2797.5" width="20" height="25" as="geometry"/>
                </mxCell>
                <mxCell id="nF97DwH9zGk8c-TD3iw7-56" value="" style="endArrow=none;dashed=1;html=1;" edge="1" parent="_g4DaSGvke30XTqqvjTM-1">
                    <mxGeometry width="50" height="50" relative="1" as="geometry">
                        <mxPoint x="-95.74999999999955" y="2845" as="sourcePoint"/>
                        <mxPoint x="-60.749999999999545" y="2845" as="targetPoint"/>
                    </mxGeometry>
                </mxCell>
                <mxCell id="nF97DwH9zGk8c-TD3iw7-57" value="" style="endArrow=none;dashed=1;html=1;" edge="1" parent="_g4DaSGvke30XTqqvjTM-1">
                    <mxGeometry width="50" height="50" relative="1" as="geometry">
                        <mxPoint x="-93.75" y="2855" as="sourcePoint"/>
                        <mxPoint x="-58.75" y="2855" as="targetPoint"/>
                    </mxGeometry>
                </mxCell>
                <mxCell id="nF97DwH9zGk8c-TD3iw7-58" value="" style="endArrow=none;dashed=1;html=1;" edge="1" parent="_g4DaSGvke30XTqqvjTM-1">
                    <mxGeometry width="50" height="50" relative="1" as="geometry">
                        <mxPoint x="-94.75" y="2865" as="sourcePoint"/>
                        <mxPoint x="-59.75" y="2865" as="targetPoint"/>
                    </mxGeometry>
                </mxCell>
                <mxCell id="nF97DwH9zGk8c-TD3iw7-59" value="&lt;meta charset=&quot;utf-8&quot;&gt;&lt;span style=&quot;color: rgb(240, 240, 240); font-family: helvetica; font-size: 12px; font-style: normal; font-weight: 400; letter-spacing: normal; text-align: left; text-indent: 0px; text-transform: none; word-spacing: 0px; background-color: rgb(42, 42, 42); display: inline; float: none;&quot;&gt;obs trraj&lt;/span&gt;" style="text;whiteSpace=wrap;html=1;" vertex="1" parent="_g4DaSGvke30XTqqvjTM-1">
                    <mxGeometry x="-150.75" y="2840" width="70" height="30" as="geometry"/>
                </mxCell>
                <mxCell id="nF97DwH9zGk8c-TD3iw7-60" value="lane_graph" style="text;whiteSpace=wrap;html=1;" vertex="1" parent="_g4DaSGvke30XTqqvjTM-1">
                    <mxGeometry x="-160.75" y="2885" width="90" height="30" as="geometry"/>
                </mxCell>
                <mxCell id="nF97DwH9zGk8c-TD3iw7-61" value="" style="endArrow=none;dashed=1;html=1;" edge="1" parent="_g4DaSGvke30XTqqvjTM-1">
                    <mxGeometry width="50" height="50" relative="1" as="geometry">
                        <mxPoint x="-90.74999999999955" y="2900.09" as="sourcePoint"/>
                        <mxPoint x="-25.749999999999545" y="2900.09" as="targetPoint"/>
                    </mxGeometry>
                </mxCell>
                <mxCell id="nF97DwH9zGk8c-TD3iw7-62" value="sample" style="text;html=1;strokeColor=none;fillColor=none;align=center;verticalAlign=middle;whiteSpace=wrap;rounded=0;" vertex="1" parent="_g4DaSGvke30XTqqvjTM-1">
                    <mxGeometry x="-172.75" y="2780" width="40" height="20" as="geometry"/>
                </mxCell>
                <mxCell id="nF97DwH9zGk8c-TD3iw7-63" value="final sample" style="text;html=1;strokeColor=none;fillColor=none;align=center;verticalAlign=middle;whiteSpace=wrap;rounded=0;" vertex="1" parent="_g4DaSGvke30XTqqvjTM-1">
                    <mxGeometry x="-89.25" y="2550" width="90" height="20" as="geometry"/>
                </mxCell>
                <mxCell id="nF97DwH9zGk8c-TD3iw7-64" value="" style="shape=curlyBracket;whiteSpace=wrap;html=1;rounded=1;fillColor=none;rotation=0;" vertex="1" parent="_g4DaSGvke30XTqqvjTM-1">
                    <mxGeometry x="-210" y="2590" width="20" height="360" as="geometry"/>
                </mxCell>
                <mxCell id="nF97DwH9zGk8c-TD3iw7-65" value="" style="shape=flexArrow;endArrow=classic;html=1;" edge="1" parent="_g4DaSGvke30XTqqvjTM-1">
                    <mxGeometry width="50" height="50" relative="1" as="geometry">
                        <mxPoint x="-434.99999999999955" y="2759.58" as="sourcePoint"/>
                        <mxPoint x="-394.99999999999955" y="2759.58" as="targetPoint"/>
                    </mxGeometry>
                </mxCell>
                <mxCell id="nF97DwH9zGk8c-TD3iw7-66" value="" style="shape=flexArrow;endArrow=classic;html=1;" edge="1" parent="_g4DaSGvke30XTqqvjTM-1">
                    <mxGeometry width="50" height="50" relative="1" as="geometry">
                        <mxPoint x="-249.99999999999955" y="2759.58" as="sourcePoint"/>
                        <mxPoint x="-209.99999999999955" y="2759.58" as="targetPoint"/>
                    </mxGeometry>
                </mxCell>
            </root>
        </mxGraphModel>
    </diagram>
    <diagram id="_k9EIdNOfs5cd2qSFHi2" name="prediction_pytorch">
        <mxGraphModel dx="1307" dy="780" grid="1" gridSize="10" guides="1" tooltips="1" connect="1" arrows="1" fold="1" page="1" pageScale="1" pageWidth="850" pageHeight="1100" math="0" shadow="0">
            <root>
                <mxCell id="2saS0OQrwvLZLpw6pj2x-0"/>
                <mxCell id="2saS0OQrwvLZLpw6pj2x-1" parent="2saS0OQrwvLZLpw6pj2x-0"/>
            </root>
        </mxGraphModel>
    </diagram>
</mxfile>